<?xml version="1.0" standalone="no"?>
<!DOCTYPE svg PUBLIC "-//W3C//DTD SVG 20010904//EN"
 "http://www.w3.org/TR/2001/REC-SVG-20010904/DTD/svg10.dtd">
<svg version="1.0" xmlns="http://www.w3.org/2000/svg"
 width="1920.000000pt" height="1080.000000pt" viewBox="0 0 1920.000000 1080.000000"
 preserveAspectRatio="xMidYMid meet">

<g transform="translate(0.000000,1080.000000) scale(0.100000,-0.100000)"
fill="#000000" stroke="none">
<path d="M5177 7303 c-9 -8 -9 -3770 -1 -3800 l6 -23 4419 0 4419 0 0 1915 0
1915 -4418 0 c-2430 0 -4422 -3 -4425 -7z m8766 -65 c16 -12 17 -131 15 -1843
l-3 -1830 -4352 -3 -4353 -2 0 1839 c0 1462 3 1840 13 1844 6 3 1959 6 4338 6
3445 1 4329 -2 4342 -11z"/>
<path d="M5955 6070 c-3 -5 -15 -10 -26 -10 -11 0 -27 -6 -36 -12 -44 -36 -90
-86 -102 -113 -7 -16 -17 -38 -22 -47 -5 -10 -9 -40 -9 -68 0 -28 4 -58 9 -68
5 -9 15 -30 22 -47 18 -40 95 -115 119 -115 10 0 22 -4 25 -10 9 -14 122 -12
164 3 64 22 151 107 151 147 0 11 5 20 10 20 6 0 10 5 10 10 0 6 -20 10 -44
10 -38 0 -45 -3 -50 -23 -22 -87 -173 -139 -249 -85 -42 29 -57 44 -57 56 0 6
-5 12 -11 14 -8 3 -12 34 -12 88 0 54 4 85 12 88 6 2 11 8 11 14 0 26 98 88
139 88 35 0 74 -16 117 -47 35 -26 52 -28 76 -10 15 12 15 14 0 33 -27 34 -87
74 -110 74 -11 0 -24 5 -27 10 -3 6 -28 10 -55 10 -27 0 -52 -4 -55 -10z"/>
<path d="M9665 6070 c-3 -5 -17 -10 -31 -10 -13 0 -24 -4 -24 -9 0 -5 -8 -12
-17 -15 -30 -10 -68 -49 -96 -100 -22 -40 -27 -61 -27 -118 0 -62 4 -75 36
-125 42 -66 49 -74 89 -92 17 -7 38 -17 47 -22 34 -17 136 -10 186 13 43 20
112 81 112 99 0 4 7 15 16 23 24 24 23 173 -2 217 -36 63 -114 129 -153 129
-11 0 -23 5 -26 10 -3 6 -28 10 -55 10 -27 0 -52 -4 -55 -10z m139 -87 c25
-15 51 -39 58 -53 7 -14 19 -31 26 -38 22 -24 15 -107 -14 -161 -34 -62 -85
-91 -159 -91 -29 0 -55 3 -57 8 -1 4 -16 14 -32 23 -16 9 -36 29 -45 45 -9 16
-19 31 -23 32 -10 5 -10 142 0 142 4 0 13 13 20 29 7 17 34 44 59 60 59 40
106 41 167 4z"/>
<path d="M10650 6070 c0 -5 -10 -10 -22 -10 -50 0 -158 -109 -158 -160 0 -11
-4 -20 -10 -20 -6 0 -10 -27 -10 -60 0 -33 4 -60 10 -60 6 0 10 -9 10 -20 0
-51 78 -132 151 -157 42 -15 155 -17 164 -3 3 6 15 10 26 10 10 0 19 5 19 10
0 6 6 10 13 10 16 0 77 62 77 78 0 7 5 12 10 12 6 0 10 9 10 19 0 11 5 23 10
26 23 14 7 25 -35 25 -34 0 -45 -4 -45 -15 0 -25 -28 -61 -70 -89 -30 -19 -52
-26 -90 -26 -58 0 -81 11 -131 62 -39 40 -48 77 -41 158 7 67 99 150 166 150
34 0 93 -26 127 -56 19 -17 28 -17 62 -1 l26 12 -52 48 c-36 32 -60 47 -79 47
-16 0 -28 5 -28 10 0 6 -25 10 -55 10 -30 0 -55 -4 -55 -10z"/>
<path d="M6976 6052 c7 -4 20 -26 30 -49 10 -24 22 -43 26 -43 5 0 8 -9 8 -20
0 -11 5 -20 10 -20 6 0 10 -8 11 -17 0 -10 9 -31 19 -48 10 -16 31 -55 47 -85
15 -30 31 -56 35 -58 4 -2 8 -12 8 -23 0 -10 5 -19 10 -19 6 0 10 -7 10 -15 0
-9 9 -25 19 -36 l19 -21 22 42 c11 22 30 57 41 76 10 19 19 41 19 48 0 8 3 16
8 18 10 4 82 150 82 166 0 6 3 12 8 12 4 0 13 15 20 33 7 17 18 40 23 50 9 16
6 18 -27 15 -29 -2 -41 -10 -55 -33 -10 -16 -18 -36 -18 -43 -1 -7 -12 -30
-26 -52 -14 -22 -25 -46 -25 -55 0 -8 -4 -15 -10 -15 -5 0 -10 -9 -10 -20 0
-11 -4 -20 -9 -20 -5 0 -11 -10 -13 -22 -2 -15 -11 -24 -24 -26 -17 -2 -27 7
-46 45 -13 26 -36 70 -51 96 -15 26 -27 54 -27 62 0 8 -4 15 -10 15 -5 0 -10
9 -10 20 0 11 -4 20 -10 20 -5 0 -10 7 -10 15 0 11 -12 15 -52 15 -29 0 -48
-4 -42 -8z"/>
<path d="M7803 6044 c-7 -7 -13 -17 -13 -21 0 -7 -52 -107 -80 -153 -5 -8 -15
-30 -22 -47 -7 -18 -16 -33 -20 -33 -5 0 -8 -9 -8 -20 0 -11 -4 -20 -10 -20
-5 0 -10 -8 -10 -19 0 -10 -7 -24 -15 -31 -8 -7 -15 -19 -15 -26 0 -8 -4 -14
-10 -14 -5 0 -10 -9 -10 -20 0 -11 -4 -20 -9 -20 -5 0 -11 -11 -13 -25 -5 -23
-2 -25 29 -25 23 0 36 5 40 18 3 9 15 27 26 40 19 20 29 22 142 22 113 0 123
-2 142 -22 11 -13 23 -31 26 -40 5 -13 17 -18 47 -18 l40 0 -20 35 c-11 20
-20 42 -20 50 0 8 -3 15 -7 15 -5 0 -21 28 -38 63 -16 34 -33 64 -37 65 -5 2
-8 12 -8 23 0 10 -4 19 -10 19 -5 0 -10 9 -10 19 0 11 -4 21 -8 23 -7 3 -75
137 -84 165 -2 8 -7 7 -15 -3z m21 -159 c8 -8 20 -31 27 -50 7 -19 17 -35 21
-35 4 0 8 -7 8 -15 0 -8 6 -24 12 -35 19 -29 -2 -43 -69 -48 -70 -5 -113 10
-113 38 0 11 5 20 10 20 6 0 10 9 10 20 0 11 5 20 10 20 6 0 10 6 10 14 0 19
39 86 50 86 5 0 15 -7 24 -15z"/>
<path d="M8190 5815 l0 -245 35 0 c33 0 35 2 35 33 0 43 29 72 65 63 13 -3 45
-27 70 -51 40 -40 49 -45 90 -45 25 0 45 3 45 6 0 4 -15 21 -34 38 -53 51 -54
70 -7 103 22 15 40 36 41 46 0 9 4 17 9 17 11 0 20 93 14 141 -6 39 -38 82
-90 117 -28 20 -44 22 -152 22 l-121 0 0 -245z m197 183 c15 -6 43 -25 61 -42
29 -27 32 -36 32 -86 0 -48 -4 -61 -28 -88 -16 -18 -36 -32 -45 -32 -9 0 -19
-4 -22 -10 -3 -5 -28 -10 -55 -10 -64 0 -70 12 -70 137 0 117 12 143 65 143
19 0 47 -5 62 -12z"/>
<path d="M8720 5815 l0 -245 35 0 c34 0 35 1 35 38 0 78 48 83 122 12 47 -45
57 -50 97 -50 l44 0 -19 22 c-10 12 -29 34 -41 48 -13 13 -23 30 -23 36 0 6
20 28 45 50 24 21 45 47 45 56 0 9 5 20 10 23 14 9 12 108 -2 142 -12 27 -40
58 -87 96 -17 14 -42 17 -141 17 l-120 0 0 -245z m196 179 c48 -20 67 -41 84
-94 11 -33 11 -46 2 -61 -7 -10 -12 -24 -12 -31 0 -18 -41 -58 -60 -58 -9 0
-21 -5 -27 -11 -5 -5 -32 -9 -59 -7 l-49 3 -3 124 c-2 82 1 128 9 137 15 19
68 18 115 -2z"/>
<path d="M9230 5815 l0 -245 35 0 35 0 0 245 0 245 -35 0 -35 0 0 -245z"/>
<path d="M11710 5815 l0 -245 35 0 c34 0 35 1 35 40 0 33 4 42 25 52 32 14 66
-2 116 -55 33 -35 39 -38 82 -35 l46 3 -46 48 c-49 52 -50 67 -7 91 20 12 42
38 62 75 14 28 16 161 2 161 -5 0 -10 8 -10 18 0 9 -16 28 -36 42 -19 14 -41
31 -49 38 -9 8 -52 12 -134 12 l-121 0 0 -245z m204 175 c54 -23 86 -68 86
-121 0 -59 -40 -119 -79 -119 -11 0 -23 -4 -26 -10 -11 -17 -102 -12 -109 6
-12 30 -7 239 6 252 18 18 70 15 122 -8z"/>
<path d="M12200 6035 c0 -23 3 -25 48 -25 81 0 82 -3 82 -238 l0 -202 35 0 35
0 0 208 c0 148 3 211 12 220 7 7 36 12 65 12 50 0 53 1 53 25 l0 25 -165 0
-165 0 0 -25z"/>
<path d="M12680 5815 l0 -245 150 0 150 0 0 35 0 35 -110 0 -111 0 3 83 3 82
93 3 92 3 0 29 0 29 -92 3 -93 3 0 65 0 65 83 3 c80 3 82 3 82 27 l0 25 -125
0 -125 0 0 -245z"/>
<path d="M13130 5815 l0 -245 35 0 c34 0 35 1 35 40 0 29 5 42 19 50 33 17 46
12 102 -40 47 -43 60 -49 97 -50 45 0 49 4 30 24 -38 39 -68 77 -68 86 0 5 14
20 31 32 106 78 105 256 -2 316 -16 10 -29 20 -29 25 0 4 -56 7 -125 7 l-125
0 0 -245z m195 179 c21 -8 43 -21 49 -27 16 -17 46 -82 46 -101 0 -32 -35 -95
-60 -107 -14 -6 -34 -16 -46 -21 -11 -5 -40 -8 -65 -6 l-44 3 -3 124 c-2 82 1
128 9 137 15 19 68 18 114 -2z"/>
<path d="M11292 6001 c-12 -26 -22 -52 -22 -59 0 -7 -4 -12 -9 -12 -5 0 -12
-11 -15 -25 -4 -14 -11 -25 -16 -25 -6 0 -10 -9 -10 -20 0 -11 -4 -20 -10 -20
-5 0 -10 -7 -10 -15 0 -8 -11 -34 -24 -57 -13 -24 -42 -78 -65 -121 l-41 -78
37 3 c26 2 41 9 48 24 25 50 36 54 169 54 l125 0 20 -29 c12 -16 21 -34 21
-40 0 -6 17 -11 39 -11 35 0 38 2 33 25 -2 14 -8 25 -13 25 -5 0 -9 9 -9 20 0
11 -4 20 -10 20 -5 0 -10 6 -10 14 0 7 -7 19 -15 26 -8 7 -15 21 -15 31 0 11
-4 19 -10 19 -5 0 -10 9 -10 20 0 11 -4 20 -10 20 -5 0 -10 7 -10 15 0 7 -14
38 -30 67 -17 29 -42 79 -58 110 -15 32 -32 59 -37 62 -6 2 -20 -17 -33 -43z
m48 -118 c11 -10 20 -23 20 -30 0 -7 8 -27 18 -45 46 -81 32 -108 -55 -108
-88 0 -110 18 -84 68 5 9 21 43 37 75 16 31 32 57 36 57 4 0 17 -8 28 -17z"/>
<path d="M6605 6000 c-98 -196 -151 -296 -157 -298 -5 -2 -8 -12 -8 -23 0 -10
-4 -19 -10 -19 -5 0 -10 -9 -10 -19 0 -11 -4 -21 -9 -23 -4 -1 -12 -13 -15
-25 -7 -21 -4 -23 29 -23 27 0 38 5 45 23 23 55 28 57 163 57 124 0 126 0 146
-26 12 -15 21 -33 21 -40 0 -10 14 -14 45 -14 l45 0 -22 38 c-11 20 -48 89
-80 152 -33 63 -64 119 -69 125 -5 5 -9 17 -9 27 0 10 -4 18 -10 18 -5 0 -10
9 -10 20 0 11 -4 20 -10 20 -5 0 -10 7 -10 15 0 15 -29 55 -40 55 -3 0 -14
-18 -25 -40z m55 -129 c0 -9 4 -21 9 -26 22 -24 60 -106 55 -119 -7 -18 -36
-26 -94 -26 -99 0 -108 15 -60 105 17 31 30 63 30 70 0 7 6 15 13 18 21 7 47
-5 47 -22z"/>
<path d="M5395 5148 c-3 -7 -4 -222 -3 -478 l3 -465 4205 0 4205 0 0 475 0
475 -4203 3 c-3357 2 -4204 0 -4207 -10z m401 -362 c8 -8 14 -18 14 -22 0 -5
-5 -3 -12 4 -7 7 -27 12 -44 12 -18 0 -36 5 -39 10 -10 16 65 12 81 -4z m514
4 c0 -5 -16 -10 -35 -10 -19 0 -35 5 -35 10 0 6 16 10 35 10 19 0 35 -4 35
-10z m535 0 c-3 -5 -29 -10 -56 -10 l-50 0 3 -42 3 -43 53 -3 c28 -2 52 -7 52
-12 0 -5 -24 -10 -52 -12 l-53 -3 -6 -50 c-4 -34 -6 -13 -7 68 l-2 117 61 0
c37 0 58 -4 54 -10z m445 0 c0 -5 -9 -10 -20 -10 -19 0 -20 -7 -20 -105 0 -63
-4 -105 -10 -105 -6 0 -10 42 -10 105 0 105 0 105 -24 105 -14 0 -28 5 -31 10
-4 6 17 10 54 10 34 0 61 -4 61 -10z m331 -53 c-8 -8 -11 0 -10 29 1 39 1 39
11 11 7 -21 7 -32 -1 -40z m1154 53 c-3 -5 -20 -10 -36 -10 -30 0 -30 0 -27
-52 3 -52 4 -53 36 -56 24 -3 32 -8 32 -23 0 -11 9 -29 20 -41 11 -12 20 -29
20 -37 0 -10 -11 -2 -28 19 -64 81 -82 86 -82 19 0 -21 -4 -39 -10 -39 -11 0
-14 212 -3 223 11 11 85 8 78 -3z m510 0 c-3 -5 -28 -10 -55 -10 -48 0 -49 0
-56 -36 -8 -45 3 -54 69 -54 30 0 46 -4 42 -10 -3 -5 -28 -10 -55 -10 -45 0
-50 -2 -56 -27 -11 -41 6 -58 65 -61 28 -2 51 -8 51 -13 0 -6 -26 -9 -62 -7
l-63 3 -3 104 c-1 58 0 111 2 118 4 9 25 13 66 13 38 0 59 -4 55 -10z m860 0
c-3 -5 -29 -10 -56 -10 l-50 0 3 -42 3 -43 53 -3 c66 -4 59 -22 -9 -22 l-49 0
0 -45 0 -45 55 0 c32 0 55 -4 55 -10 0 -7 -24 -10 -62 -8 l-63 3 -3 104 c-1
58 0 111 2 118 4 9 25 13 66 13 38 0 59 -4 55 -10z m1005 0 c0 -5 -18 -10 -40
-10 -22 0 -40 5 -40 10 0 6 18 10 40 10 22 0 40 -4 40 -10z m930 -105 c0 -104
-9 -129 -31 -88 -8 16 -18 33 -24 40 -5 7 -16 19 -22 27 -7 8 -13 18 -13 21 0
14 -32 37 -40 29 -5 -5 -11 -43 -13 -84 -2 -57 -3 -47 -5 43 -1 64 0 117 2
117 2 0 25 -34 52 -75 27 -41 54 -73 59 -72 6 2 11 39 13 83 4 109 22 76 22
-41z m470 106 c-25 -15 -113 -17 -118 -3 -3 9 15 12 65 12 44 -1 63 -4 53 -9z
m475 -1 c-3 -5 -28 -10 -56 -10 l-49 0 0 -45 0 -45 56 0 c34 0 53 -4 49 -10
-3 -5 -28 -10 -56 -10 l-49 0 0 -45 0 -45 55 0 c32 0 55 -4 55 -10 0 -7 -24
-10 -62 -8 l-63 3 -3 118 -3 117 66 0 c42 0 64 -4 60 -10z m440 0 c-3 -5 -19
-10 -36 -10 -27 0 -29 -2 -29 -39 0 -57 8 -71 41 -71 23 0 29 -5 29 -20 0 -12
11 -33 24 -47 14 -15 23 -30 20 -35 -5 -7 -25 17 -68 79 -1 0 -10 3 -21 5 -17
2 -21 -4 -26 -42 -4 -29 -7 -3 -7 73 l-2 117 41 0 c24 0 38 -4 34 -10z m-5705
-56 c0 -8 -4 -14 -8 -14 -16 0 -32 25 -32 50 l1 25 19 -24 c11 -13 20 -29 20
-37z m2900 -54 c0 -60 -3 -110 -7 -110 -5 1 -30 34 -58 75 -27 41 -54 73 -60
71 -5 -1 -13 -36 -16 -77 -5 -70 -5 -68 -7 36 l-1 110 29 -35 c17 -19 30 -38
30 -42 0 -11 52 -68 62 -68 4 0 8 34 8 75 0 43 4 75 10 75 6 0 10 -43 10 -110z
m-4960 91 c0 -6 -4 -13 -10 -16 -5 -3 -10 1 -10 9 0 9 5 16 10 16 6 0 10 -4
10 -9z m514 -9 c-12 -9 -26 -26 -32 -37 -10 -17 -11 -18 -12 -3 0 23 30 58 50
58 11 0 10 -5 -6 -18z m146 -4 c11 -12 21 -27 21 -32 10 -79 -5 -122 -52 -148
-39 -23 -72 -23 -107 -1 -40 26 -52 40 -52 60 1 16 2 16 12 -2 20 -36 52 -55
96 -55 23 0 42 4 42 8 0 5 11 15 25 22 22 12 25 20 25 68 0 47 -4 58 -27 78
-16 13 -23 24 -16 24 7 0 21 -10 33 -22z m1928 -1 c2 -12 -3 -17 -17 -17 -15
0 -21 6 -21 21 0 25 33 22 38 -4z m532 1 c0 -19 -2 -20 -10 -8 -13 19 -13 30
0 30 6 0 10 -10 10 -22z m2240 14 c0 -4 -9 -13 -20 -20 -22 -13 -27 -3 -8 16
14 14 28 16 28 4z m136 -6 c8 -8 14 -23 14 -33 -1 -16 -2 -16 -12 2 -6 11 -19
25 -27 32 -12 9 -12 12 -3 13 7 0 20 -6 28 -14z m381 -143 c-2 -32 -3 -8 -3
52 0 61 1 87 3 58 2 -29 2 -78 0 -110z m1933 137 c0 -11 -2 -20 -4 -20 -2 0
-6 9 -9 20 -3 11 -1 20 4 20 5 0 9 -9 9 -20z m-5661 -32 c0 -13 -4 -32 -9 -43
-7 -15 -9 -10 -9 23 -1 23 4 42 9 42 6 0 10 -10 9 -22z m-2101 -38 c11 0 34
-8 51 -17 25 -14 31 -25 31 -50 0 -18 -4 -33 -9 -33 -5 0 -8 11 -8 24 0 28
-24 56 -47 56 -31 0 -86 35 -86 55 0 18 3 17 24 -7 13 -16 33 -28 44 -28z
m1959 3 c-3 -10 -5 -2 -5 17 0 19 2 27 5 18 2 -10 2 -26 0 -35z m3300 -35 c-2
-18 -4 -6 -4 27 0 33 2 48 4 33 2 -15 2 -42 0 -60z m-2770 40 c-3 -7 -5 -2 -5
12 0 14 2 19 5 13 2 -7 2 -19 0 -25z m73 0 c0 -18 -2 -20 -9 -8 -6 8 -7 18 -5
22 9 14 14 9 14 -14z m499 -19 c-20 -12 -22 -4 -7 20 11 18 14 19 16 5 2 -9
-2 -20 -9 -25z m-1159 -16 c0 -13 4 -23 8 -23 5 0 14 10 20 23 10 20 11 21 11
2 0 -11 -6 -38 -13 -60 l-14 -40 -12 30 c-17 41 -25 125 -11 105 6 -8 11 -25
11 -37z m5864 33 c-5 -14 -34 -31 -34 -20 0 8 24 33 32 34 4 0 5 -6 2 -14z
m-5734 -18 c0 -19 -2 -20 -10 -8 -13 19 -13 30 0 30 6 0 10 -10 10 -22z m4728
12 c61 0 43 -16 -25 -22 -48 -5 -53 -3 -53 15 0 13 5 17 16 13 9 -3 36 -6 62
-6z m-4238 -40 c21 0 42 5 46 11 3 6 15 -7 25 -31 22 -48 23 -60 9 -60 -5 0
-10 11 -10 24 0 28 -16 36 -70 36 -51 0 -70 -8 -70 -31 0 -10 -5 -19 -11 -19
-6 0 -9 6 -6 13 2 6 10 29 18 50 10 28 15 34 22 22 5 -9 23 -15 47 -15z m2960
15 c0 -21 -51 -85 -63 -78 -4 3 1 12 12 20 33 23 26 43 -14 43 -19 0 -35 5
-35 10 0 6 23 10 50 10 28 0 50 -2 50 -5z m-3406 -64 c-6 -29 -8 -30 -20 -14
-17 23 -18 60 -1 66 18 6 28 -17 21 -52z m3236 -16 c0 -3 -9 -1 -20 5 -11 6
-20 17 -20 25 0 11 5 10 20 -5 11 -11 20 -22 20 -25z m-5360 5 c0 -5 26 -10
58 -10 40 0 53 -3 42 -10 -22 -14 -82 -12 -102 4 -20 15 -23 26 -8 26 6 0 10
-4 10 -10z m6811 -10 c27 0 49 -5 49 -10 0 -17 -122 -8 -128 9 -3 10 0 12 12
8 10 -4 40 -7 67 -7z m-1361 -10 c-20 -13 -67 -13 -75 0 -4 6 12 10 42 10 35
0 44 -3 33 -10z"/>
</g>
</svg>
