<?xml version="1.0" encoding="utf-8"?>
<!-- Generator: Adobe Illustrator 24.0.2, SVG Export Plug-In . SVG Version: 6.00 Build 0)  -->
<svg version="1.1" id="Layer_1" xmlns="http://www.w3.org/2000/svg" xmlns:xlink="http://www.w3.org/1999/xlink" x="0px" y="0px"
	 viewBox="0 0 429.7 144.6" style="enable-background:new 0 0 429.7 144.6;" xml:space="preserve">
<style type="text/css">
	.st0{fill:#FFFFFF;}
	.st1{fill:#33CCCC;}
	.st2{fill-rule:evenodd;clip-rule:evenodd;fill:url(#SVGID_1_);}
	.st3{fill-rule:evenodd;clip-rule:evenodd;fill:url(#SVGID_2_);}
	.st4{fill-rule:evenodd;clip-rule:evenodd;fill:#FFFFFF;}
</style>
<g>
	<g>
		<path class="st0" d="M4.1,105.3H2.8H1.5V96v-9.3h1.3h1.3V96V105.3z"/>
		<path class="st0" d="M8.7,105.3V92.1h1.4c0.3,0,0.5,0.2,0.6,0.5l0.2,1.4c1-1.2,2.1-2,3.7-2c1.8,0,2.9,1.1,3.4,2.7
			c0.7-1.9,2.5-2.7,4.2-2.7c2.8,0,4.4,1.8,4.4,5v8.4h-2.3v-8.4c0-2.1-0.9-3.2-2.6-3.2c-1.5,0-2.8,1.1-2.8,3.2v8.4h-2.3v-8.4
			c0-2.1-0.9-3.2-2.5-3.2c-1.1,0-2.1,0.7-2.9,1.7v9.8H8.7z"/>
		<path class="st0" d="M30.1,109.8V92.1h1.4c0.3,0,0.5,0.2,0.6,0.5l0.2,1.6c1.1-1.4,2.6-2.3,4.4-2.3c3,0,5,2.4,5,6.8
			c0,3.9-2.1,6.9-5.7,6.9c-1.6,0-2.7-0.6-3.6-1.6v5.8H30.1z M32.4,95.7v6.4c0.8,1.1,1.9,1.6,3.1,1.6c2.4,0,3.8-1.8,3.8-5.1
			c0-3.5-1.2-4.9-3.4-4.9C34.5,93.8,33.4,94.5,32.4,95.7z"/>
		<path class="st0" d="M44.5,105.3V92.1h1.3c0.5,0,0.7,0.2,0.7,0.6l0.2,2.1c0.9-1.8,2.2-2.9,4-2.9c0.7,0,1.3,0.2,1.8,0.5l-0.3,1.7
			c-0.1,0.2-0.2,0.3-0.4,0.3c-0.2,0-0.7-0.2-1.6-0.2c-1.6,0-2.7,1-3.4,2.7v8.4H44.5z"/>
		<path class="st0" d="M65.6,98.7c0,4.2-2.4,6.8-6.3,6.8c-3.9,0-6.3-2.6-6.3-6.8c0-4.1,2.5-6.8,6.3-6.8
			C63.2,91.9,65.6,94.6,65.6,98.7z M63.2,98.7c0-3.1-1.3-5-3.9-5c-2.6,0-3.9,1.9-3.9,5c0,3.1,1.3,5,3.9,5
			C61.9,103.7,63.2,101.8,63.2,98.7z"/>
		<path class="st0" d="M66.4,92.1h1.9c0.4,0,0.6,0.2,0.7,0.5l3.3,8.5c0.2,0.6,0.4,1.3,0.5,1.9c0.1-0.6,0.3-1.2,0.5-1.9l3.4-8.5
			c0.1-0.3,0.3-0.5,0.7-0.5h1.8l-5.4,13.2h-2.1L66.4,92.1z"/>
		<path class="st0" d="M82.9,89.6c-0.9,0-1.6-0.8-1.6-1.6c0-0.9,0.8-1.7,1.6-1.7c0.9,0,1.7,0.8,1.7,1.7
			C84.6,88.9,83.8,89.6,82.9,89.6z M84,92.1v13.2h-2.3V92.1H84z"/>
		<path class="st0" d="M88.1,105.3V92.1h1.4c0.3,0,0.5,0.2,0.6,0.5l0.2,1.4c1.1-1.3,2.5-2.1,4.4-2.1c2.9,0,4.4,2,4.4,5v8.4h-2.3
			v-8.4c0-2-0.9-3.2-2.8-3.2c-1.4,0-2.6,0.7-3.6,1.8v9.7H88.1z"/>
		<path class="st0" d="M110,92.6h3.6v0.9c0,0.3-0.2,0.5-0.5,0.5l-1.5,0.2c0.3,0.6,0.4,1.2,0.4,1.9c0,2.6-2.1,4.3-5,4.3
			c-0.6,0-1.2-0.1-1.7-0.2c-0.6,0.4-0.8,0.8-0.8,1.1c0,2.5,8.8-0.6,8.8,4.3c0,2.3-2.3,4.4-6.2,4.4c-3.9,0-5.8-1.7-5.8-3.5
			c0-1.3,0.9-2.2,2.3-2.7c-0.7-0.4-1.2-0.9-1.2-1.9c0-0.8,0.6-1.7,1.7-2.3c-1.3-0.7-2.1-2-2.1-3.6c0-2.6,2.1-4.2,5-4.2
			C108.2,91.9,109.2,92.1,110,92.6z M105.1,104.2c-1,0.5-1.7,1.1-1.7,2.1c0,1.2,1.2,2.1,3.8,2.1c2.5,0,4-1,4-2.3
			C111.2,104,107.6,104.6,105.1,104.2z M109.9,96.2c0-1.6-1-2.6-2.9-2.6c-1.9,0-2.9,1-2.9,2.6c0,1.6,1,2.7,2.9,2.7
			C109,98.9,109.9,97.8,109.9,96.2z"/>
		<path class="st0" d="M125.2,109.2c-0.2,0.4-0.4,0.6-0.8,0.6h-1.7l2.4-5.2l-5.4-12.4h2c0.4,0,0.6,0.2,0.7,0.5l3.5,8.3
			c0.2,0.4,0.3,0.8,0.4,1.2c0.1-0.4,0.2-0.8,0.4-1.2l3.4-8.3c0.1-0.3,0.4-0.5,0.7-0.5h1.9L125.2,109.2z"/>
		<path class="st0" d="M145.5,98.7c0,4.2-2.4,6.8-6.3,6.8c-3.9,0-6.3-2.6-6.3-6.8c0-4.1,2.4-6.8,6.3-6.8
			C143.1,91.9,145.5,94.6,145.5,98.7z M143.1,98.7c0-3.1-1.3-5-3.9-5c-2.6,0-3.9,1.9-3.9,5c0,3.1,1.3,5,3.9,5
			C141.8,103.7,143.1,101.8,143.1,98.7z"/>
		<path class="st0" d="M150.4,92.1v8.4c0,2,0.9,3.1,2.8,3.1c1.4,0,2.6-0.7,3.6-1.8v-9.7h2.3v13.2h-1.4c-0.3,0-0.5-0.2-0.6-0.5
			l-0.2-1.4c-1.1,1.3-2.5,2.1-4.4,2.1c-2.9,0-4.4-2-4.4-5v-8.4H150.4z"/>
		<path class="st0" d="M162.8,105.3V92.1h1.3c0.5,0,0.7,0.2,0.7,0.6l0.2,2.1c0.9-1.8,2.2-2.9,4-2.9c0.7,0,1.3,0.2,1.8,0.5l-0.3,1.7
			c-0.1,0.2-0.2,0.3-0.4,0.3c-0.2,0-0.7-0.2-1.6-0.2c-1.6,0-2.7,1-3.4,2.7v8.4H162.8z"/>
		<path class="st0" d="M178.8,109.8V92.1h1.4c0.3,0,0.5,0.2,0.6,0.5l0.2,1.6c1.1-1.4,2.6-2.3,4.4-2.3c3,0,5,2.4,5,6.8
			c0,3.9-2.1,6.9-5.7,6.9c-1.6,0-2.7-0.6-3.6-1.6v5.8H178.8z M181.1,95.7v6.4c0.8,1.1,1.9,1.6,3.1,1.6c2.4,0,3.8-1.8,3.8-5.1
			c0-3.5-1.2-4.9-3.4-4.9C183.1,93.8,182.1,94.5,181.1,95.7z"/>
		<path class="st0" d="M193.2,105.3V92.1h1.3c0.5,0,0.7,0.2,0.7,0.6l0.2,2.1c0.9-1.8,2.2-2.9,4-2.9c0.7,0,1.3,0.2,1.8,0.5l-0.3,1.7
			c-0.1,0.2-0.2,0.3-0.4,0.3c-0.2,0-0.7-0.2-1.6-0.2c-1.6,0-2.7,1-3.4,2.7v8.4H193.2z"/>
		<path class="st0" d="M214.3,98.7c0,4.2-2.4,6.8-6.3,6.8c-3.9,0-6.3-2.6-6.3-6.8c0-4.1,2.4-6.8,6.3-6.8
			C211.8,91.9,214.3,94.6,214.3,98.7z M211.9,98.7c0-3.1-1.3-5-3.9-5c-2.6,0-3.9,1.9-3.9,5c0,3.1,1.3,5,3.9,5
			C210.6,103.7,211.9,101.8,211.9,98.7z"/>
		<path class="st0" d="M217.6,105.3v-5.6v-5.6l-0.7-0.1l-0.7-0.1c-0.2,0-0.3-0.1-0.4-0.2c-0.1-0.1-0.2-0.2-0.2-0.4v-0.5v-0.5h1h1V92
			v-0.4c0-1.6,0.5-3,1.5-4c1-1,2.5-1.5,4.5-1.5c0.3,0,0.7,0,1,0.1c0.3,0,0.6,0.1,0.9,0.2l0,0.6l0,0.6c0,0.1-0.1,0.2-0.2,0.2
			c-0.1,0-0.2,0-0.4,0c-0.1,0-0.2,0-0.3,0s-0.2,0-0.4,0c-1.5,0-2.6,0.3-3.4,1c-0.7,0.6-1,1.6-1,2.9V92v0.3h4h4v6.5v6.5h-1.2h-1.2
			v-5.6v-5.6h-2.8H220v5.6v5.6h-1.2H217.6z"/>
		<path class="st0" d="M232.7,102.1v-8.1h-1.6c-0.3,0-0.5-0.2-0.5-0.5v-0.9l2.2-0.3l0.5-4.1c0-0.3,0.2-0.4,0.5-0.4h1.2v4.5h3.8v1.7
			h-3.8v7.9c0,1.1,0.6,1.6,1.4,1.6c1,0,1.4-0.6,1.7-0.6c0.1,0,0.2,0.1,0.3,0.2l0.7,1.1c-0.8,0.7-2,1.2-3.2,1.2
			C233.9,105.5,232.7,104.3,232.7,102.1z"/>
		<path class="st0" d="M249.3,94.3c-0.1,0.2-0.3,0.3-0.5,0.3c-0.5,0-1.3-0.9-3.1-0.9c-1.6,0-2.5,0.8-2.5,1.9c0,2.7,6.8,1.4,6.8,5.7
			c0,2.4-1.8,4.2-5,4.2c-1.8,0-3.4-0.7-4.4-1.6l0.5-0.9c0.1-0.2,0.3-0.4,0.6-0.4c0.6,0,1.3,1.2,3.3,1.2c1.8,0,2.7-1,2.7-2.2
			c0-2.9-6.9-1.4-6.9-5.9c0-2,1.7-3.8,4.7-3.8c1.7,0,3.1,0.6,4.1,1.5L249.3,94.3z"/>
		<path class="st0" d="M268.1,105.3h-1c-0.5,0-0.7-0.1-0.8-0.5l-0.3-1.2c-1.4,1.3-2.6,2-4.6,2c-2,0-3.7-1.1-3.7-3.5
			c0-2.1,2.1-4,8.1-4.1v-1c0-2-0.9-3.1-2.6-3.1c-2.3,0-3,1.4-3.8,1.4c-0.3,0-0.5-0.2-0.7-0.4l-0.4-0.7c1.5-1.4,3.1-2.1,5.2-2.1
			c3,0,4.6,2,4.6,5V105.3z M265.9,102.1v-2.7c-4.3,0.1-5.9,1.1-5.9,2.5c0,1.4,1,2,2.2,2C263.7,103.9,264.8,103.2,265.9,102.1z"/>
		<path class="st0" d="M271.7,105.3V92.1h1.4c0.3,0,0.5,0.2,0.6,0.5l0.2,1.4c1.1-1.3,2.5-2.1,4.4-2.1c2.9,0,4.4,2,4.4,5v8.4h-2.3
			v-8.4c0-2-0.9-3.2-2.8-3.2c-1.4,0-2.6,0.7-3.6,1.8v9.7H271.7z"/>
		<path class="st0" d="M295.4,105.3c-0.3,0-0.5-0.2-0.6-0.5l-0.2-1.6c-1.1,1.4-2.6,2.3-4.4,2.3c-3,0-5-2.3-5-6.7
			c0-3.9,2.1-6.9,5.7-6.9c1.6,0,2.7,0.6,3.6,1.6v-7.3h2.3v19.2H295.4z M294.5,101.6v-6.4c-0.8-1.1-1.9-1.6-3.1-1.6
			c-2.5,0-3.8,1.8-3.8,5.1c0,3.4,1.2,4.9,3.4,4.9C292.5,103.6,293.6,102.9,294.5,101.6z"/>
		<path class="st0" d="M308,102.1v-8.1h-1.6c-0.3,0-0.5-0.2-0.5-0.5v-0.9l2.2-0.3l0.5-4.1c0-0.3,0.2-0.4,0.5-0.4h1.2v4.5h3.8v1.7
			h-3.8v7.9c0,1.1,0.6,1.6,1.4,1.6c1,0,1.4-0.6,1.7-0.6c0.1,0,0.2,0.1,0.3,0.2l0.7,1.1c-0.8,0.7-2,1.2-3.2,1.2
			C309.1,105.5,308,104.3,308,102.1z"/>
		<path class="st0" d="M316.9,105.3V86.1h2.3v7.8c1.1-1.2,2.5-2,4.2-2c2.9,0,4.4,2,4.4,5v8.4h-2.3v-8.4c0-2-0.9-3.2-2.8-3.2
			c-1.4,0-2.6,0.7-3.6,1.8v9.7H316.9z"/>
		<path class="st0" d="M342.1,97.8c0,0.7-0.1,0.9-0.6,0.9h-8.8c0.1,3.3,1.7,5,4.2,5c2.3,0,3.3-1.3,3.9-1.3c0.2,0,0.3,0.1,0.4,0.2
			l0.7,0.8c-1.1,1.4-3.3,2-5.2,2c-3.6,0-6.3-2.5-6.3-7c0-3.7,2.3-6.5,6.2-6.5C339.8,91.9,342.1,94.1,342.1,97.8z M332.9,97.3h7.2
			c0-2.2-1.2-3.7-3.3-3.7C334.5,93.6,333.2,95,332.9,97.3z"/>
		<path class="st0" d="M350,109.8V92.1h1.4c0.3,0,0.5,0.2,0.6,0.5l0.2,1.6c1.1-1.4,2.6-2.3,4.4-2.3c3,0,5,2.4,5,6.8
			c0,3.9-2.1,6.9-5.7,6.9c-1.6,0-2.7-0.6-3.6-1.6v5.8H350z M352.3,95.7v6.4c0.8,1.1,1.9,1.6,3.1,1.6c2.4,0,3.8-1.8,3.8-5.1
			c0-3.5-1.2-4.9-3.4-4.9C354.3,93.8,353.2,94.5,352.3,95.7z"/>
		<path class="st0" d="M366.9,86.1v9.6v9.6h-1.2h-1.2v-9.6v-9.6h1.2H366.9z"/>
		<path class="st0" d="M380.7,105.3h-1c-0.5,0-0.7-0.1-0.8-0.5l-0.3-1.2c-1.4,1.3-2.6,2-4.6,2c-2,0-3.7-1.1-3.7-3.5
			c0-2.1,2.1-4,8.1-4.1v-1c0-2-0.9-3.1-2.6-3.1c-2.3,0-3,1.4-3.8,1.4c-0.3,0-0.5-0.2-0.7-0.4l-0.4-0.7c1.5-1.4,3.1-2.1,5.2-2.1
			c3,0,4.6,2,4.6,5V105.3z M378.4,102.1v-2.7c-4.3,0.1-5.9,1.1-5.9,2.5c0,1.4,1,2,2.2,2C376.3,103.9,377.4,103.2,378.4,102.1z"/>
		<path class="st0" d="M384.2,105.3V92.1h1.4c0.3,0,0.5,0.2,0.6,0.5l0.2,1.4c1.1-1.3,2.5-2.1,4.4-2.1c2.9,0,4.4,2,4.4,5v8.4h-2.3
			v-8.4c0-2-0.9-3.2-2.8-3.2c-1.4,0-2.6,0.7-3.6,1.8v9.7H384.2z"/>
		<path class="st0" d="M409.4,97.8c0,0.7-0.1,0.9-0.6,0.9h-8.8c0.1,3.3,1.7,5,4.2,5c2.3,0,3.3-1.3,3.9-1.3c0.2,0,0.3,0.1,0.4,0.2
			l0.7,0.8c-1.1,1.4-3.3,2-5.2,2c-3.6,0-6.3-2.5-6.3-7c0-3.7,2.3-6.5,6.2-6.5C407.1,91.9,409.4,94.1,409.4,97.8z M400.2,97.3h7.2
			c0-2.2-1.2-3.7-3.3-3.7C401.8,93.6,400.5,95,400.2,97.3z"/>
		<path class="st0" d="M413.1,102.1v-8.1h-1.6c-0.3,0-0.5-0.2-0.5-0.5v-0.9l2.2-0.3l0.5-4.1c0-0.3,0.2-0.4,0.5-0.4h1.2v4.5h3.8v1.7
			h-3.8v7.9c0,1.1,0.6,1.6,1.4,1.6c1,0,1.4-0.6,1.7-0.6c0.1,0,0.2,0.1,0.3,0.2l0.7,1.1c-0.8,0.7-2,1.2-3.2,1.2
			C414.3,105.5,413.1,104.3,413.1,102.1z"/>
		<path class="st0" d="M423,102.2c0.9,0,1.6,0.7,1.6,1.6c0,0.9-0.7,1.6-1.6,1.6c-0.9,0-1.6-0.7-1.6-1.6
			C421.3,103,422,102.2,423,102.2z"/>
		<path class="st1" d="M9.2,140c-5.5,0-9.2-3.9-9.2-9.5c0-5.6,3.7-9.6,9.2-9.6c5.5,0,9.2,4,9.2,9.6C18.4,136.1,14.7,140,9.2,140z
			 M9.2,123.1c-4,0-6.6,2.8-6.6,7.4s2.6,7.3,6.6,7.3c4,0,6.6-2.7,6.6-7.3S13.2,123.1,9.2,123.1z"/>
		<path class="st1" d="M21.4,139.8v-13.2h1.4c0.3,0,0.5,0.2,0.6,0.5l0.2,1.4c1.1-1.3,2.5-2.1,4.4-2.1c2.9,0,4.4,2,4.4,5v8.4h-2.3
			v-8.4c0-2-0.9-3.2-2.8-3.2c-1.4,0-2.6,0.7-3.6,1.8v9.7H21.4z"/>
		<path class="st1" d="M46.6,132.3c0,0.7-0.1,0.9-0.6,0.9h-8.8c0.1,3.3,1.7,5,4.2,5c2.3,0,3.3-1.3,3.9-1.3c0.2,0,0.3,0.1,0.4,0.2
			l0.7,0.8c-1.1,1.4-3.3,2-5.2,2c-3.6,0-6.3-2.5-6.3-7c0-3.7,2.3-6.5,6.2-6.5C44.3,126.4,46.6,128.5,46.6,132.3z M37.4,131.8h7.2
			c0-2.2-1.2-3.7-3.3-3.7C39,128.1,37.7,129.5,37.4,131.8z"/>
		<path class="st1" d="M55.1,139.8v-19.2h2.3v7.9c1.1-1.3,2.5-2.1,4.3-2.1c3.1,0,5,2.3,5,6.7c0,3.9-2.2,6.9-5.7,6.9
			c-1.7,0-2.8-0.7-3.7-1.9l-0.1,1.2c-0.1,0.3-0.3,0.5-0.6,0.5H55.1z M57.4,130.2v6.4c0.8,1.1,1.8,1.6,3.1,1.6c2.5,0,3.8-1.8,3.8-5.1
			c0-3.5-1.2-4.9-3.4-4.9C59.5,128.2,58.4,129,57.4,130.2z"/>
		<path class="st1" d="M71.6,126.6v8.4c0,2,0.9,3.1,2.8,3.1c1.4,0,2.6-0.7,3.6-1.8v-9.7h2.3v13.2h-1.4c-0.3,0-0.5-0.2-0.6-0.5
			l-0.2-1.4c-1.1,1.3-2.5,2.1-4.4,2.1c-2.9,0-4.4-2-4.4-5v-8.4H71.6z"/>
		<path class="st1" d="M85.5,124.1c-0.9,0-1.6-0.8-1.6-1.6c0-0.9,0.8-1.7,1.6-1.7s1.7,0.8,1.7,1.7C87.2,123.3,86.4,124.1,85.5,124.1
			z M86.7,126.6v13.2h-2.3v-13.2H86.7z"/>
		<path class="st1" d="M93.3,120.6v19.2H91v-19.2H93.3z"/>
		<path class="st1" d="M106.7,139.8c-0.3,0-0.5-0.2-0.6-0.5l-0.2-1.6c-1.1,1.4-2.6,2.3-4.4,2.3c-3,0-5-2.3-5-6.7
			c0-3.9,2.1-6.9,5.7-6.9c1.6,0,2.7,0.6,3.6,1.6v-7.3h2.3v19.2H106.7z M105.8,136.1v-6.4c-0.8-1.1-1.9-1.6-3.1-1.6
			c-2.5,0-3.8,1.8-3.8,5.1c0,3.4,1.2,4.9,3.4,4.9C103.7,138.1,104.8,137.4,105.8,136.1z"/>
		<path class="st1" d="M113.4,124.1c-0.9,0-1.6-0.8-1.6-1.6c0-0.9,0.8-1.7,1.6-1.7c0.9,0,1.7,0.8,1.7,1.7
			C115.1,123.3,114.3,124.1,113.4,124.1z M114.6,126.6v13.2h-2.3v-13.2H114.6z"/>
		<path class="st1" d="M118.7,139.8v-13.2h1.4c0.3,0,0.5,0.2,0.6,0.5l0.2,1.4c1.1-1.3,2.5-2.1,4.4-2.1c2.9,0,4.4,2,4.4,5v8.4h-2.3
			v-8.4c0-2-0.9-3.2-2.8-3.2c-1.4,0-2.6,0.7-3.6,1.8v9.7H118.7z"/>
		<path class="st1" d="M140.6,127.1h3.6v0.9c0,0.3-0.2,0.5-0.5,0.5l-1.5,0.2c0.3,0.6,0.4,1.2,0.4,1.9c0,2.6-2.1,4.3-5,4.3
			c-0.6,0-1.2-0.1-1.7-0.2c-0.6,0.4-0.8,0.8-0.8,1.1c0,2.5,8.8-0.6,8.8,4.3c0,2.3-2.3,4.4-6.2,4.4c-3.9,0-5.8-1.7-5.8-3.5
			c0-1.3,0.9-2.2,2.3-2.7c-0.7-0.4-1.2-0.9-1.2-1.9c0-0.8,0.6-1.7,1.7-2.3c-1.3-0.7-2.1-2-2.1-3.6c0-2.6,2.1-4.2,5-4.2
			C138.7,126.4,139.7,126.6,140.6,127.1z M135.6,138.7c-1,0.5-1.7,1.1-1.7,2.1c0,1.2,1.2,2.1,3.8,2.1c2.5,0,4-1,4-2.3
			C141.7,138.5,138.2,139.1,135.6,138.7z M140.5,130.7c0-1.6-1-2.6-2.9-2.6c-1.9,0-2.9,1-2.9,2.6c0,1.6,1,2.7,2.9,2.7
			C139.5,133.4,140.5,132.3,140.5,130.7z"/>
		<path class="st1" d="M161.3,139.8h-1c-0.5,0-0.7-0.1-0.8-0.5l-0.3-1.2c-1.4,1.3-2.6,2-4.6,2c-2,0-3.7-1.1-3.7-3.5
			c0-2.1,2.1-4,8.1-4.1v-1c0-2-0.9-3.1-2.6-3.1c-2.3,0-3,1.4-3.8,1.4c-0.3,0-0.5-0.2-0.7-0.4l-0.4-0.7c1.5-1.4,3.1-2.1,5.2-2.1
			c3,0,4.6,2,4.6,5V139.8z M159,136.6v-2.7c-4.3,0.1-5.9,1.1-5.9,2.5c0,1.4,1,2,2.2,2C156.8,138.4,157.9,137.7,159,136.6z"/>
		<path class="st1" d="M165.5,136.6v-8.1H164c-0.3,0-0.5-0.2-0.5-0.5v-0.9l2.2-0.3l0.5-4.1c0-0.3,0.2-0.4,0.5-0.4h1.2v4.5h3.8v1.7
			h-3.8v7.9c0,1.1,0.6,1.6,1.4,1.6c1,0,1.4-0.6,1.7-0.6c0.1,0,0.2,0.1,0.3,0.2l0.7,1.1c-0.8,0.7-2,1.2-3.2,1.2
			C166.7,140,165.5,138.8,165.5,136.6z"/>
		<path class="st1" d="M189.6,139.8h-1c-0.5,0-0.7-0.1-0.8-0.5l-0.3-1.2c-1.4,1.3-2.6,2-4.6,2c-2,0-3.7-1.1-3.7-3.5
			c0-2.1,2.1-4,8.1-4.1v-1c0-2-0.9-3.1-2.6-3.1c-2.3,0-3,1.4-3.8,1.4c-0.3,0-0.5-0.2-0.7-0.4l-0.4-0.7c1.5-1.4,3.1-2.1,5.2-2.1
			c3,0,4.6,2,4.6,5V139.8z M187.4,136.6v-2.7c-4.3,0.1-5.9,1.1-5.9,2.5c0,1.4,1,2,2.2,2C185.2,138.4,186.3,137.7,187.4,136.6z"/>
		<path class="st1" d="M198.7,136.6v-8.1h-1.6c-0.3,0-0.5-0.2-0.5-0.5v-0.9l2.2-0.3l0.5-4.1c0-0.3,0.2-0.4,0.5-0.4h1.2v4.5h3.8v1.7
			H201v7.9c0,1.1,0.6,1.6,1.4,1.6c1,0,1.4-0.6,1.7-0.6c0.1,0,0.2,0.1,0.3,0.2l0.7,1.1c-0.8,0.7-2,1.2-3.2,1.2
			C199.8,140,198.7,138.8,198.7,136.6z"/>
		<path class="st1" d="M209.1,124.1c-0.9,0-1.6-0.8-1.6-1.6c0-0.9,0.8-1.7,1.6-1.7s1.7,0.8,1.7,1.7
			C210.7,123.3,210,124.1,209.1,124.1z M210.2,126.6v13.2h-2.3v-13.2H210.2z"/>
		<path class="st1" d="M214.3,139.8v-13.2h1.4c0.3,0,0.5,0.2,0.6,0.5l0.2,1.4c1-1.2,2.1-2,3.7-2c1.8,0,2.9,1.1,3.4,2.7
			c0.7-1.9,2.5-2.7,4.2-2.7c2.8,0,4.4,1.8,4.4,5v8.4h-2.3v-8.4c0-2.1-0.9-3.2-2.6-3.2c-1.5,0-2.8,1.1-2.8,3.2v8.4h-2.3v-8.4
			c0-2.1-0.9-3.2-2.5-3.2c-1.1,0-2.1,0.7-2.9,1.7v9.8H214.3z"/>
		<path class="st1" d="M246.4,132.3c0,0.7-0.1,0.9-0.6,0.9h-8.8c0.1,3.3,1.7,5,4.2,5c2.3,0,3.3-1.3,3.9-1.3c0.2,0,0.3,0.1,0.4,0.2
			l0.7,0.8c-1.1,1.4-3.3,2-5.2,2c-3.6,0-6.3-2.5-6.3-7c0-3.7,2.3-6.5,6.2-6.5C244.1,126.4,246.4,128.5,246.4,132.3z M237.1,131.8
			h7.2c0-2.2-1.2-3.7-3.3-3.7C238.7,128.1,237.5,129.5,237.1,131.8z"/>
		<path class="st1" d="M250.2,136.7c0.9,0,1.6,0.7,1.6,1.6c0,0.9-0.7,1.6-1.6,1.6s-1.6-0.7-1.6-1.6
			C248.6,137.5,249.3,136.7,250.2,136.7z"/>
	</g>
	<g>
		<linearGradient id="SVGID_1_" gradientUnits="userSpaceOnUse" x1="404.6278" y1="37.31" x2="365.8448" y2="59.5212">
			<stop  offset="0" style="stop-color:#009999"/>
			<stop  offset="0.7" style="stop-color:#33CCCC"/>
		</linearGradient>
		<polygon class="st2" points="409.4,45.6 390.1,34.6 370.6,45.7 370.6,45.8 370.6,67.8 		"/>
		<linearGradient id="SVGID_2_" gradientUnits="userSpaceOnUse" x1="424.705" y1="42.7402" x2="365.5362" y2="8.8538">
			<stop  offset="0.35" style="stop-color:#33CCCC"/>
			<stop  offset="1" style="stop-color:#009999"/>
		</linearGradient>
		<polygon class="st3" points="370.6,0 429.7,33.9 409.3,45.7 370.6,23.5 370.6,0 		"/>
	</g>
	<g>
		<g>
			<defs>
				<path id="SVGID_3_" d="M37.8,52.4v10.4H1.4V4.5h36.4v10.4H14.6v13.6h17.8v10H14.6v13.9H37.8L37.8,52.4z M85.3,62.8
					c-1,0-1.9-0.2-2.5-0.5c-0.7-0.3-1.4-0.9-2-1.7L54.1,25.8c0.1,1,0.2,2,0.2,3c0,1,0.1,1.9,0.1,2.7v31.2H42.8V4.5h6.9
					c0.6,0,1,0,1.4,0.1c0.4,0.1,0.7,0.2,1,0.3c0.3,0.1,0.6,0.4,0.9,0.6c0.3,0.3,0.6,0.6,1,1.1l26.9,35c-0.1-1.1-0.2-2.2-0.3-3.3
					c-0.1-1.1-0.1-2-0.1-3V4.5h11.6v58.3H85.3L85.3,62.8z M124.7,15.2v47.6h-13.1V15.2H95.7V4.5h44.9v10.7H124.7L124.7,15.2z
					 M196.2,45.4c-1.4,3.6-3.4,6.8-6,9.5c-2.6,2.7-5.6,4.8-9.3,6.3c-3.6,1.5-7.6,2.3-12,2.3c-4.4,0-8.4-0.8-12-2.3
					c-3.6-1.5-6.7-3.6-9.3-6.3c-2.6-2.7-4.6-5.8-6-9.5c-1.4-3.6-2.1-7.5-2.1-11.8c0-4.2,0.7-8.1,2.1-11.8c1.4-3.6,3.4-6.8,6-9.4
					c2.6-2.7,5.7-4.8,9.3-6.3c3.6-1.5,7.6-2.3,12-2.3c4.4,0,8.4,0.8,12,2.3c3.6,1.5,6.7,3.6,9.3,6.3c2.6,2.7,4.5,5.8,6,9.4
					c1.4,3.6,2.1,7.5,2.1,11.7C198.3,37.9,197.6,41.8,196.2,45.4L196.2,45.4z M183.8,25.9c-0.7-2.3-1.8-4.3-3.1-5.9
					c-1.4-1.6-3-2.8-5-3.7c-2-0.9-4.2-1.3-6.7-1.3c-2.5,0-4.8,0.4-6.8,1.3c-2,0.9-3.6,2.1-5,3.7c-1.4,1.6-2.4,3.6-3.1,5.9
					c-0.7,2.3-1.1,4.9-1.1,7.8c0,2.9,0.4,5.5,1.1,7.8c0.7,2.3,1.8,4.3,3.1,5.9c1.4,1.6,3,2.8,5,3.7c2,0.8,4.2,1.3,6.8,1.3
					c2.5,0,4.7-0.4,6.7-1.3c2-0.8,3.6-2.1,5-3.7c1.4-1.6,2.4-3.6,3.1-5.9c0.7-2.3,1.1-4.9,1.1-7.8C184.9,30.8,184.5,28.2,183.8,25.9
					L183.8,25.9z M249.1,48.9c-1.1,3-2.7,5.6-4.8,7.7c-2.1,2.2-4.6,3.8-7.6,5c-3,1.2-6.4,1.8-10.1,1.8c-3.8,0-7.2-0.6-10.2-1.8
					c-3-1.2-5.5-2.9-7.6-5c-2.1-2.2-3.7-4.7-4.8-7.7c-1.1-3-1.7-6.3-1.7-9.8V4.5h13.1V39c0,2.1,0.3,3.9,0.8,5.5
					c0.5,1.6,1.2,3,2.2,4.1c1,1.1,2.1,2,3.5,2.6c1.4,0.6,3,0.9,4.7,0.9c1.8,0,3.3-0.3,4.7-0.9c1.4-0.6,2.6-1.5,3.5-2.6
					c1-1.1,1.7-2.5,2.2-4.1c0.5-1.6,0.8-3.4,0.8-5.5V4.5h13.1V39C250.8,42.6,250.3,45.9,249.1,48.9L249.1,48.9z M297,18.8
					c-0.4,0.3-0.9,0.5-1.6,0.5c-0.5,0-0.9-0.1-1.3-0.3c-0.4-0.2-0.9-0.5-1.3-0.8c-0.5-0.3-1-0.6-1.5-1c-0.6-0.4-1.2-0.7-2-1
					c-0.8-0.3-1.7-0.6-2.7-0.8c-1-0.2-2.2-0.3-3.6-0.3c-2.2,0-4.2,0.4-6,1.2c-1.8,0.8-3.4,2-4.7,3.6c-1.3,1.6-2.3,3.5-3,5.8
					c-0.7,2.3-1.1,4.9-1.1,7.9c0,3,0.4,5.6,1.2,8c0.8,2.3,1.9,4.3,3.2,5.9c1.4,1.6,2.9,2.8,4.8,3.6c1.8,0.8,3.8,1.2,5.8,1.2
					c1.2,0,2.3-0.1,3.3-0.2c1-0.1,1.9-0.3,2.8-0.6c0.9-0.3,1.7-0.7,2.4-1.1c0.7-0.5,1.5-1.1,2.3-1.8c0.3-0.3,0.6-0.5,1-0.7
					c0.4-0.2,0.7-0.3,1.1-0.3c0.3,0,0.6,0.1,0.9,0.2c0.3,0.1,0.6,0.3,0.9,0.6l5.2,5.6c-2.3,3.1-5.1,5.4-8.6,6.9
					c-3.4,1.6-7.5,2.3-12.2,2.3c-4.3,0-8.1-0.8-11.5-2.3c-3.4-1.5-6.3-3.6-8.7-6.2c-2.4-2.7-4.2-5.8-5.5-9.4
					c-1.3-3.6-1.9-7.6-1.9-11.9c0-4.3,0.7-8.3,2.1-12c1.4-3.6,3.3-6.8,5.8-9.4c2.5-2.6,5.5-4.7,8.9-6.2c3.5-1.5,7.3-2.2,11.4-2.2
					c2.1,0,4.1,0.2,6,0.6c1.9,0.4,3.6,0.9,5.3,1.6c1.6,0.7,3.1,1.5,4.5,2.5c1.4,1,2.6,2,3.6,3.1l-4.4,6.1
					C297.7,18.1,297.4,18.5,297,18.8L297,18.8z M341.9,62.8V38.2h-23v24.6h-13.2V4.5h13.2v24.4h23V4.5h13.2v58.3H341.9L341.9,62.8z"
					/>
			</defs>
			<use xlink:href="#SVGID_3_"  style="overflow:visible;fill:#FFFFFF;"/>
			<clipPath id="SVGID_4_">
				<use xlink:href="#SVGID_3_"  style="overflow:visible;"/>
			</clipPath>
		</g>
		<path class="st4" d="M360.2,3.9v0.5h-0.9v2.3h-0.5V4.4H358V3.9H360.2L360.2,3.9z M363.2,6.7l-0.1-1.6c0-0.2,0-0.5,0-0.8h0
			c-0.1,0.2-0.2,0.6-0.2,0.8l-0.5,1.5h-0.6l-0.5-1.6c-0.1-0.2-0.1-0.5-0.2-0.8h0c0,0.3,0,0.5,0,0.8l-0.1,1.6h-0.5l0.2-2.7h0.8
			l0.5,1.3c0.1,0.2,0.1,0.4,0.2,0.7h0c0.1-0.2,0.1-0.5,0.2-0.7l0.5-1.4h0.8l0.2,2.7H363.2L363.2,6.7z"/>
	</g>
</g>
</svg>
