<svg xmlns="http://www.w3.org/2000/svg" viewBox="0 0 700 273"><defs><style>.cls-1{fill:#e4f2fb;}.cls-2{fill:#f0faff;}.cls-11,.cls-3,.cls-32{fill:#fff;}.cls-12,.cls-34,.cls-4{fill:none;}.cls-4{stroke:#d0d8dc;stroke-width:1.37px;}.cls-11,.cls-12,.cls-32,.cls-34,.cls-4{stroke-miterlimit:10;}.cls-5{fill:#d0d8dc;}.cls-6{fill:#99cf8c;}.cls-7{fill:#57a7db;}.cls-8{fill:#ccd5e2;}.cls-9{fill:#b6e0f4;}.cls-10{fill:#f9b777;}.cls-11,.cls-12{stroke:#fff;}.cls-11{stroke-width:0.5px;}.cls-12{stroke-width:2px;}.cls-13{fill:#546e7a;}.cls-14{fill:#73c073;}.cls-15{fill:#f26522;}.cls-16{fill:#00a1e0;}.cls-17{fill:#fc6142;}.cls-18{fill:#0071bc;}.cls-19{fill:#71be71;}.cls-20{fill:#a7ddf2;}.cls-21{fill:#f96;}.cls-22{fill:#b0bec5;}.cls-23{fill:#1a82d7;}.cls-24{fill:#d7ebf8;}.cls-25{fill:#d5e9f7;}.cls-26{fill:#95c8ec;}.cls-27{fill:#37474f;}.cls-28{fill:#f5fbf7;}.cls-29{fill:#90a4ae;}.cls-30{fill:#00b7ef;}.cls-31{fill:#95aec5;}.cls-32{stroke:#ededed;stroke-width:0.35px;}.cls-33{fill:#4bca81;}.cls-34{stroke:#1a82d7;stroke-width:1.39px;}.cls-35{fill:#908aeb;}</style></defs><title>salesforce-implementation</title><g id="Layer_2" data-name="Layer 2"><path class="cls-1" d="M112,164.2v-6.4a2.6,2.6,0,0,0-2.6-2.6h0a2.58,2.58,0,0,1-2.46-1.79,25,25,0,0,0-1.79-4.23,2.58,2.58,0,0,1,.45-3l.7-.7a2.6,2.6,0,0,0,0-3.68l-4.06-4.06a2.6,2.6,0,0,0-3.68,0l-.7.7a2.58,2.58,0,0,1-3,.45,25,25,0,0,0-4.23-1.79,2.58,2.58,0,0,1-1.79-2.46h0a2.6,2.6,0,0,0-2.6-2.6H79.8a2.6,2.6,0,0,0-2.6,2.6h0a2.58,2.58,0,0,1-1.79,2.46,24.93,24.93,0,0,0-4.24,1.79,2.58,2.58,0,0,1-3-.45l-.69-.69a2.6,2.6,0,0,0-3.68,0l-4.06,4.06a2.6,2.6,0,0,0,0,3.68l.69.69a2.58,2.58,0,0,1,.45,3,24.93,24.93,0,0,0-1.79,4.24,2.58,2.58,0,0,1-2.46,1.79h0a2.6,2.6,0,0,0-2.6,2.6v6.4a2.6,2.6,0,0,0,2.6,2.6h0a2.58,2.58,0,0,1,2.46,1.79,25,25,0,0,0,1.79,4.23,2.58,2.58,0,0,1-.45,3l-.7.7a2.6,2.6,0,0,0,0,3.68l4.06,4.06a2.6,2.6,0,0,0,3.68,0l.7-.7a2.58,2.58,0,0,1,3-.45,25,25,0,0,0,4.23,1.79,2.58,2.58,0,0,1,1.79,2.46h0a2.6,2.6,0,0,0,2.6,2.6h6.4a2.6,2.6,0,0,0,2.6-2.6h0a2.58,2.58,0,0,1,1.79-2.46,24.93,24.93,0,0,0,4.24-1.79,2.58,2.58,0,0,1,3,.45l.69.69a2.6,2.6,0,0,0,3.68,0l4.06-4.06a2.6,2.6,0,0,0,0-3.68l-.69-.69a2.58,2.58,0,0,1-.45-3,24.93,24.93,0,0,0,1.79-4.24,2.58,2.58,0,0,1,2.46-1.79h0A2.6,2.6,0,0,0,112,164.2Zm0,2.6"/><path class="cls-2" d="M100.4,161A17.4,17.4,0,1,1,83,143.6,17.4,17.4,0,0,1,100.4,161Zm0,0"/><path class="cls-3" d="M92.67,161A9.67,9.67,0,1,1,83,151.33,9.67,9.67,0,0,1,92.67,161Zm0,0"/><polyline id="_Path_" data-name="&lt;Path&gt;" class="cls-4" points="357.18 104.83 357.18 47.17 648.16 47.17 648.16 229.04 591.11 229.04"/><path id="_Path_2" data-name="&lt;Path&gt;" class="cls-5" d="M579.71,226.94h4.68v-1.13a3.24,3.24,0,0,1,3.23-3.23h29.52a3.24,3.24,0,0,1,3.23,3.23v1.13H625v5.81h-4.68v1.13a3.24,3.24,0,0,1-3.23,3.23H587.62a3.24,3.24,0,0,1-3.23-3.23v-1.13h-4.68Z"/><path id="_Path_3" data-name="&lt;Path&gt;" class="cls-5" d="M354.1,121.46v-4.68H353a3.24,3.24,0,0,1-3.23-3.23V84A3.24,3.24,0,0,1,353,80.8h1.13V76.12h5.81V80.8H361A3.24,3.24,0,0,1,364.27,84v29.52a3.24,3.24,0,0,1-3.23,3.23h-1.13v4.68Z"/><circle class="cls-6" cx="416.01" cy="46.97" r="27.97"/><circle class="cls-7" cx="502.83" cy="46.97" r="27.97"/><circle class="cls-8" cx="589.66" cy="46.97" r="27.97"/><circle class="cls-9" cx="649.12" cy="94.02" r="27.97"/><circle class="cls-10" cx="649.12" cy="175.01" r="27.97"/><path class="cls-3" d="M486.43,55.22a1.68,1.68,0,0,0,1.68,1.68l29.43,0h0a1.68,1.68,0,0,0,1.68-1.68l0-16.54A1.68,1.68,0,0,0,517.56,37l-29.43,0h0a1.68,1.68,0,0,0-1.68,1.68Zm11.12-7.09a.84.84,0,0,0-1.18-.15l-8.26,6.4,0-14.94,14.22,9.89a.84.84,0,0,0,1,0l14.25-9.85,0,14.9L509.28,48a.84.84,0,0,0-1,1.33l7.67,5.95-26.15,0,7.62-5.91A.84.84,0,0,0,497.54,48.13Zm5.29-.51L490,38.68l25.74,0Z"/><path class="cls-3" d="M408.19,49.41A7.82,7.82,0,1,0,416,41.59,7.82,7.82,0,0,0,408.19,49.41Zm6.22,3.11a9.3,9.3,0,0,1-.56-2.49h4.31a9.28,9.28,0,0,1-.56,2.49ZM417,53.91a13,13,0,0,1-1,1.53,13.14,13.14,0,0,1-1-1.53Zm4.69-1.39H419a10.29,10.29,0,0,0,.47-2.49h2.93A6.39,6.39,0,0,1,421.66,52.52Zm-4-6.2a9.18,9.18,0,0,1,.49,2.32h-4.31a9.25,9.25,0,0,1,.5-2.32ZM415,44.93A10.69,10.69,0,0,1,416,43.31a10.68,10.68,0,0,1,1.05,1.62Zm4.1,1.39h2.62a6.43,6.43,0,0,1,.74,2.32H419.5A10.59,10.59,0,0,0,419.06,46.32ZM413,52.52h-2.62a6.4,6.4,0,0,1-.77-2.49h2.93A10.35,10.35,0,0,0,413,52.52Zm-3.37-3.88a6.41,6.41,0,0,1,.74-2.32H413a10.63,10.63,0,0,0-.44,2.32Zm4.87-5.5a12.67,12.67,0,0,0-1,1.79h-2.12A6.44,6.44,0,0,1,414.47,43.14Zm6.18,1.79h-2.12a12.56,12.56,0,0,0-1-1.79A6.45,6.45,0,0,1,420.65,44.93Zm-3.17,10.76a13.55,13.55,0,0,0,1-1.78h2.13A6.45,6.45,0,0,1,417.48,55.69Zm-6.1-1.78h2.13a13.38,13.38,0,0,0,1,1.78A6.44,6.44,0,0,1,411.38,53.91Z"/><path class="cls-11" d="M593.08,34.25h-.29a4.17,4.17,0,0,0,1.06-2.78V29.16a4.19,4.19,0,1,0-8.37,0v2.32a4.17,4.17,0,0,0,1.06,2.78h-.29a5.21,5.21,0,0,0-5.2,5.2V43a.7.7,0,0,0,.7.7h15.83a.7.7,0,0,0,.7-.7V39.46A5.21,5.21,0,0,0,593.08,34.25Zm-3.42-7.88a2.78,2.78,0,0,1,2.75,2.37L591.17,28a.7.7,0,0,0-.9.15,3.12,3.12,0,0,1-2.39,1.12h-1v-.14h0A2.78,2.78,0,0,1,589.66,26.38Zm-2.78,4.32h1a4.52,4.52,0,0,0,3.05-1.18l1.5.88v1.08a2.78,2.78,0,1,1-5.56,0V30.7Zm10,11.57H582.45V39.46a3.8,3.8,0,0,1,3.8-3.8H589v1.4a.7.7,0,0,0,1.41,0v-1.4h2.71a3.8,3.8,0,0,1,3.8,3.8Z"/><path class="cls-11" d="M582.49,53h-1a3.25,3.25,0,0,0,.59-1.87V50.5a3.27,3.27,0,1,0-6.55,0v.64a3.25,3.25,0,0,0,.59,1.87h-1a3.52,3.52,0,0,0-3.52,3.52v3.74a.7.7,0,0,0,.7.7H585.3a.7.7,0,0,0,.7-.7V56.53A3.52,3.52,0,0,0,582.49,53ZM577,50.5a1.87,1.87,0,0,1,3.73,0v.64a1.87,1.87,0,0,1-3.73,0Zm7.63,9.06H573.07v-3a2.11,2.11,0,0,1,2.11-2.11h3v1.42a.7.7,0,0,0,1.41,0V54.42h3a2.11,2.11,0,0,1,2.11,2.11Z"/><path class="cls-11" d="M604.15,53h-1a3.25,3.25,0,0,0,.59-1.87V50.5a3.27,3.27,0,0,0-6.55,0v.64A3.25,3.25,0,0,0,597.8,53h-1a3.52,3.52,0,0,0-3.52,3.52v3.74a.7.7,0,0,0,.7.7H607a.7.7,0,0,0,.7-.7V56.53A3.52,3.52,0,0,0,604.15,53Zm-5.52-2.51a1.87,1.87,0,0,1,3.73,0v.64a1.87,1.87,0,0,1-3.73,0Zm7.63,9.06H594.72v-3a2.11,2.11,0,0,1,2.11-2.11h3v1.42a.7.7,0,0,0,1.41,0V54.42h3a2.11,2.11,0,0,1,2.11,2.11Z"/><path class="cls-11" d="M594,52.39l-3.68-3.68v-3a.7.7,0,0,0-1.41,0v3l-3.68,3.68a.7.7,0,1,0,1,1L589.66,50l3.39,3.39a.7.7,0,1,0,1-1Z"/><path class="cls-11" d="M590.16,39.27a.7.7,0,1,0,.21.5A.71.71,0,0,0,590.16,39.27Z"/><path class="cls-11" d="M645.33,105.7a3,3,0,1,0,3,3A3,3,0,0,0,645.33,105.7Zm0,4.29a1.32,1.32,0,1,1,1.32-1.32A1.32,1.32,0,0,1,645.33,110Z"/><path class="cls-11" d="M655.78,105.7a3,3,0,1,0,3,3A3,3,0,0,0,655.78,105.7Zm0,4.29a1.32,1.32,0,1,1,1.32-1.32A1.32,1.32,0,0,1,655.78,110Z"/><path class="cls-11" d="M656.51,90H644.59a.83.83,0,0,0,0,1.66h11.92a.83.83,0,1,0,0-1.66Z"/><path class="cls-11" d="M655.86,94.33H645.24a.83.83,0,0,0,0,1.66h10.62a.83.83,0,0,0,0-1.66Z"/><path class="cls-11" d="M664.63,86.31a1.66,1.66,0,0,0-1.29-.61H637.43l-.52-2.54a1.67,1.67,0,0,0-1-1.19l-3.65-1.58a.83.83,0,0,0-.66,1.53l3.65,1.58,4,19.54a1.67,1.67,0,0,0,1.63,1.33h19.93a.83.83,0,0,0,0-1.66H640.93l-.49-2.38H661A1.67,1.67,0,0,0,662.64,99L665,87.69A1.66,1.66,0,0,0,664.63,86.31ZM661,98.65H640.1l-2.33-11.29h25.57Z"/><rect class="cls-3" x="643.97" y="174.45" width="15.28" height="2.07"/><rect class="cls-3" x="643.97" y="178.71" width="15.28" height="2.07"/><path class="cls-3" d="M663.83,162.54l-6.41-6.18h-18v5h-5v30.32h24.44v-5h5Zm-5.8-2.71,2.2,2.12H658Zm-1.24,29.76H636.49V163.4h2.9v23.28h17.41Zm-15.34-5V158.43H656V164h5.8v20.6Z"/><path class="cls-3" d="M651.69,168.28c-.46,0-.83-.2-1.11-1.2l-.12-.43-1.33.8,0,.24a2.59,2.59,0,0,0,1.79,2v.89h1.46v-.9a2.18,2.18,0,0,0,1-.64,2.3,2.3,0,0,0,.61-1.61h0a2,2,0,0,0-.86-1.67,5,5,0,0,0-.94-.56l-.52-.27-.33-.22h0a.55.55,0,0,1-.25-.5.49.49,0,0,1,.46-.5c.31,0,.51.08.77.55l.18.32,1.25-.81-.14-.28a2.18,2.18,0,0,0-1.25-1.15v-.91H651v.9a2,2,0,0,0-1.35,1.95,1.82,1.82,0,0,0,.62,1.45,4.41,4.41,0,0,0,1.21.74c.8.38,1.08.64,1.08,1a.89.89,0,0,1-.18.58A.78.78,0,0,1,651.69,168.28Z"/><path class="cls-12" d="M402,32.91h28a2.5,2.5,0,0,1,2.5,2.5v23.5a1,1,0,0,1-1,1h-31a1,1,0,0,1-1-1V35.41A2.5,2.5,0,0,1,402,32.91Z"/><line class="cls-12" x1="399.51" y1="39" x2="432.51" y2="39"/><rect class="cls-9" x="106.36" y="117.59" width="134.51" height="149.22"/><rect class="cls-13" x="106.36" y="261.75" width="134.51" height="7.51"/><rect class="cls-13" x="106.36" y="117.59" width="134.51" height="11.32"/><rect class="cls-3" x="136.91" y="242.89" width="9" height="1.86"/><rect class="cls-14" x="178.5" y="242.89" width="9" height="1.86"/><rect class="cls-3" x="136.91" y="237.21" width="37.52" height="1.86"/><rect class="cls-15" x="127.92" y="254.26" width="4.76" height="1.86"/><rect class="cls-10" x="127.92" y="140.57" width="5.58" height="1.86"/><rect class="cls-14" x="127.92" y="151.94" width="6.4" height="1.86"/><rect class="cls-3" x="136.91" y="151.94" width="17.85" height="1.86"/><rect class="cls-3" x="132.82" y="157.62" width="9.67" height="1.86"/><rect class="cls-3" x="171.62" y="157.62" width="9.67" height="1.86"/><rect class="cls-16" x="183.34" y="157.62" width="9.67" height="1.86"/><rect class="cls-3" x="145.91" y="157.62" width="22.26" height="1.86"/><rect class="cls-16" x="136.91" y="163.31" width="12.94" height="1.86"/><rect class="cls-3" x="153.54" y="163.31" width="27.76" height="1.86"/><rect class="cls-14" x="142.64" y="174.68" width="8.04" height="1.86"/><rect class="cls-10" x="142.64" y="180.36" width="8.04" height="1.86"/><rect class="cls-3" x="154.25" y="174.68" width="24.74" height="1.86"/><rect class="cls-3" x="154.25" y="180.36" width="34.41" height="1.86"/><rect class="cls-16" x="148.36" y="186.05" width="8.21" height="1.86"/><rect class="cls-3" x="154.25" y="191.73" width="55.01" height="1.86"/><rect class="cls-3" x="154.25" y="197.42" width="18.21" height="1.86"/><rect class="cls-16" x="175.69" y="197.42" width="8.13" height="1.86"/><rect class="cls-3" x="186.64" y="197.42" width="8.13" height="1.86"/><rect class="cls-15" x="133.64" y="203.1" width="5.58" height="1.86"/><rect class="cls-16" x="136.09" y="208.78" width="13.9" height="1.86"/><rect class="cls-16" x="212.15" y="208.78" width="9.81" height="1.86"/><rect class="cls-3" x="153.25" y="208.78" width="54.71" height="1.86"/><rect class="cls-3" x="144.27" y="214.47" width="46.43" height="1.86"/><rect class="cls-3" x="144.27" y="220.15" width="56.1" height="1.86"/><rect class="cls-16" x="141" y="225.84" width="6.54" height="1.86"/><rect class="cls-16" x="133.64" y="231.52" width="9.81" height="1.86"/><rect class="cls-3" x="149.38" y="242.89" width="25.05" height="1.86"/><circle class="cls-17" cx="113.74" cy="123.16" r="2.12"/><circle class="cls-14" cx="121.06" cy="123.16" r="2.12"/><circle class="cls-10" cx="128.38" cy="123.16" r="2.12"/><path class="cls-2" d="M141,185.34v83.92H27V183H138.68a2.29,2.29,0,0,1,2.29,2.29Z"/><path class="cls-18" d="M141,185.34V197.5H27V185.34A2.29,2.29,0,0,1,29.29,183H138.68a2.29,2.29,0,0,1,2.29,2.29Z"/><path class="cls-3" d="M36.18,192h0a1.72,1.72,0,1,1,0-3.44h0a1.72,1.72,0,0,1,0,3.44Z"/><path class="cls-3" d="M41.37,192h0a1.72,1.72,0,1,1,0-3.44h0a1.72,1.72,0,1,1,0,3.44Z"/><path class="cls-3" d="M46.57,192h0a1.72,1.72,0,0,1,0-3.44h0a1.72,1.72,0,1,1,0,3.44Z"/><path class="cls-3" d="M131.81,192h-3.2a1.72,1.72,0,0,1,0-3.44h3.2a1.72,1.72,0,1,1,0,3.44Z"/><path class="cls-3" d="M104.76,225.89h22.61a5.83,5.83,0,1,1,0,11.67H104.76a5.83,5.83,0,1,1,0-11.67Z"/><path class="cls-10" d="M110.59,231.72a5.83,5.83,0,1,1-5.83-5.83,5.83,5.83,0,0,1,5.83,5.83Z"/><path class="cls-3" d="M127.37,217.6H104.76a5.83,5.83,0,1,1,0-11.66h22.61a5.83,5.83,0,1,1,0,11.66Z"/><path class="cls-19" d="M133.2,211.77a5.83,5.83,0,1,1-5.83-5.83,5.83,5.83,0,0,1,5.83,5.83Z"/><path class="cls-3" d="M127.37,257.5H104.76a5.83,5.83,0,1,1,0-11.66h22.61a5.83,5.83,0,1,1,0,11.66Z"/><path class="cls-19" d="M133.2,251.67a5.83,5.83,0,1,1-5.83-5.83,5.83,5.83,0,0,1,5.83,5.83Z"/><path class="cls-20" d="M67.88,251.69H37.2a1.72,1.72,0,1,1,0-3.44H67.88a1.72,1.72,0,1,1,0,3.44Z"/><path class="cls-20" d="M45.08,256.93H37.2a1.72,1.72,0,1,1,0-3.44h7.89a1.72,1.72,0,1,1,0,3.44Z"/><path class="cls-20" d="M87.6,256.93H50a1.72,1.72,0,1,1,0-3.44H87.6a1.72,1.72,0,1,1,0,3.44Z"/><path class="cls-20" d="M43.29,231.43H37.2a1.72,1.72,0,1,1,0-3.44h6.1a1.72,1.72,0,1,1,0,3.44Z"/><path class="cls-20" d="M87.6,231.43H48.22a1.72,1.72,0,1,1,0-3.44H87.6a1.72,1.72,0,1,1,0,3.44Z"/><path class="cls-20" d="M87.6,236.67H37.2a1.72,1.72,0,1,1,0-3.44H87.6a1.72,1.72,0,0,1,0,3.44Z"/><path class="cls-20" d="M67.88,211.18H37.2a1.72,1.72,0,1,1,0-3.44H67.88a1.72,1.72,0,1,1,0,3.44Z"/><path class="cls-20" d="M65.44,216.41H37.2a1.72,1.72,0,1,1,0-3.44H65.44a1.72,1.72,0,1,1,0,3.44Z"/><path class="cls-20" d="M87.6,216.41H70.32a1.72,1.72,0,1,1,0-3.44H87.6a1.72,1.72,0,0,1,0,3.44Z"/><path class="cls-10" d="M256.3,230.62c7,0,35.89-.66,44.5-.66,2.93,0,9.55.43,12.24,1.22l-13.69-42.79h-35l-13.79,43.07A20.47,20.47,0,0,1,256.3,230.62Z"/><path class="cls-21" d="M294.33,188.38h-8.39l1.07,8.47a4.16,4.16,0,1,0,8.25-1Z"/><path class="cls-21" d="M269.34,188.38l-2.2,17.41a4.16,4.16,0,0,0,3.61,4.65,4.23,4.23,0,0,0,.53,0,4.16,4.16,0,0,0,4.12-3.64l2.33-18.45h-8.39Z"/><path class="cls-22" d="M239.18,111.57q0-6.79.49-13.51c-13.35,7.52-22.54,24.26-22.54,43.65a55.9,55.9,0,0,0,7.36,28.24,2.45,2.45,0,0,0,3,1,54,54,0,0,1,20.11-4A181,181,0,0,1,239.18,111.57Z"/><path class="cls-22" d="M324,98.06q.48,6.72.49,13.51A181,181,0,0,1,316,167a54,54,0,0,1,20.11,4,2.45,2.45,0,0,0,3-1,55.89,55.89,0,0,0,7.36-28.24C346.55,122.32,337.35,105.57,324,98.06Z"/><path class="cls-7" d="M260.59,173.37v12.79a2.78,2.78,0,0,0,2.77,2.77H300.3a2.78,2.78,0,0,0,2.77-2.77V173.37Z"/><path class="cls-8" d="M315.59,53.1H248.08a179.87,179.87,0,0,0-9.45,58.47c0,21.37,3.54,42.37,10.25,60.74a2.46,2.46,0,0,0,2.31,1.61h61.31a2.45,2.45,0,0,0,2.31-1.61c6.7-18.37,10.25-39.37,10.25-60.74A179.85,179.85,0,0,0,315.59,53.1Z"/><path class="cls-19" d="M265.85,53.1v9.21a2.78,2.78,0,0,0,2.77,2.77h26.43a2.78,2.78,0,0,0,2.77-2.77V53.1Z"/><path class="cls-10" d="M281.84,3a2.45,2.45,0,0,0-1.54.55c-12.39,10-22.83,25.26-30.18,44-.78,2-1.52,4-2.22,6.09h67.9c-.71-2.06-1.44-4.09-2.22-6.09-7.35-18.76-17.79-34-30.18-44A2.45,2.45,0,0,0,281.84,3Z"/><circle class="cls-23" cx="281.84" cy="103.37" r="28.3"/><circle class="cls-24" cx="281.84" cy="103.37" r="18.16"/><path class="cls-3" d="M270.34,103.37a18.16,18.16,0,0,0,14.83,17.85,18.16,18.16,0,1,1,0-35.7A18.16,18.16,0,0,0,270.34,103.37Z"/><path class="cls-25" d="M248.24,259.57A37.49,37.49,0,0,1,255.33,227a32.18,32.18,0,0,0-43.71,42.27h30.59A14.73,14.73,0,0,1,248.24,259.57Z"/><path class="cls-2" d="M284.59,212.93a37.5,37.5,0,0,0-36.35,46.64,14.65,14.65,0,0,1,23.07,9.69h13.42a16.67,16.67,0,0,1,12.79-15.83,30.32,30.32,0,0,1,18.29-23.77A37.44,37.44,0,0,0,284.59,212.93Z"/><path class="cls-1" d="M270.86,267.24h0a14.74,14.74,0,0,0-28.64,2h29.1A14.69,14.69,0,0,0,270.86,267.24Z"/><path class="cls-25" d="M297.52,253.43a16.67,16.67,0,0,0-12.79,15.83h14.82a30.19,30.19,0,0,1-2.33-11.66A30.52,30.52,0,0,1,297.52,253.43Z"/><path class="cls-26" d="M317,269.26h1.09a16.8,16.8,0,0,0-.13-1.75Q317.48,268.4,317,269.26Z"/><path class="cls-1" d="M327.51,227.32a30.26,30.26,0,0,0-30,26.12,30.52,30.52,0,0,0-.29,4.17,30.19,30.19,0,0,0,2.33,11.66H317q.5-.86,1-1.75a16.8,16.8,0,0,1,.13,1.75h37.4a30.3,30.3,0,0,0-28-41.94Z"/><g id="_Group_" data-name="&lt;Group&gt;"><path id="_Path_4" data-name="&lt;Path&gt;" class="cls-27" d="M602.65,89.6a6.22,6.22,0,0,1,6.23,6.23v160a6.22,6.22,0,0,1-6.23,6.23H345.26a6.22,6.22,0,0,1-6.23-6.23v-160a6.22,6.22,0,0,1,6.23-6.23Z"/><path id="_Path_5" data-name="&lt;Path&gt;" class="cls-28" d="M622.66,269.26H325.36A13.38,13.38,0,0,1,312,255.92H636A13.38,13.38,0,0,1,622.66,269.26Z"/><path id="_Path_6" data-name="&lt;Path&gt;" class="cls-22" d="M633.89,263a13.47,13.47,0,0,1-11.23,6.23H325.36A13.07,13.07,0,0,1,314.13,263Z"/><circle id="_Path_7" data-name="&lt;Path&gt;" class="cls-29" cx="611.76" cy="259.26" r="1.45"/><circle id="_Path_8" data-name="&lt;Path&gt;" class="cls-29" cx="615.88" cy="259.26" r="1.56"/><circle id="_Path_9" data-name="&lt;Path&gt;" class="cls-29" cx="620.1" cy="259.26" r="1.56"/></g><g id="_Group_2" data-name="&lt;Group&gt;"><rect class="cls-3" x="349.54" y="99.59" width="249" height="149.55"/></g><g id="_Group_3" data-name="&lt;Group&gt;"><rect class="cls-30" x="349.54" y="99.59" width="249" height="17.36"/></g><rect class="cls-8" x="349.63" y="143.29" width="248.91" height="19.8"/><rect class="cls-21" x="359.03" y="149" width="9.23" height="9.23"/><rect class="cls-31" x="373.2" y="149" width="12.53" height="1.98"/><rect class="cls-31" x="372.95" y="168.35" width="14.42" height="1.99"/><rect class="cls-31" x="372.95" y="172.99" width="14.42" height="1.99"/><rect class="cls-31" x="410.14" y="168.35" width="14.42" height="1.99"/><rect class="cls-31" x="410.14" y="172.99" width="14.42" height="1.99"/><rect class="cls-31" x="447.33" y="168.35" width="14.42" height="1.99"/><rect class="cls-31" x="447.33" y="172.99" width="14.42" height="1.99"/><rect class="cls-31" x="484.51" y="168.35" width="24.29" height="1.99"/><rect class="cls-31" x="484.51" y="172.99" width="24.29" height="1.99"/><rect class="cls-31" x="373.28" y="153.64" width="64.61" height="4.64"/><rect class="cls-32" x="442.53" y="153.64" width="11.93" height="4.64"/><rect class="cls-32" x="564.91" y="150.37" width="14.58" height="6.84"/><rect class="cls-32" x="550.33" y="150.37" width="14.58" height="6.84"/><polygon class="cls-33" points="430.17 200.15 395.9 200.15 399.48 195.51 395.9 190.88 430.17 190.88 433.76 195.51 430.17 200.15"/><polygon class="cls-23" points="468.61 200.15 431.71 200.15 435.29 195.51 431.71 190.88 468.61 190.88 472.19 195.51 468.61 200.15"/><polygon class="cls-8" points="504.44 200.15 470.16 200.15 473.75 195.51 470.16 190.88 504.44 190.88 508.02 195.51 504.44 200.15"/><path class="cls-8" d="M542.81,195.51c0-2.45-2.28-4.45-5.16-4.62v0H506l3.58,4.64L506,200.15h31.65v0C540.54,200,542.81,198,542.81,195.51Z"/><path class="cls-33" d="M394.71,190.87h-30.3c-3.07,0-5.56,2.08-5.56,4.64s2.49,4.64,5.56,4.64h30.3l3.58-4.64Z"/><rect class="cls-31" x="360.17" y="214.87" width="141.97" height="1.39"/><rect class="cls-31" x="360.17" y="225.45" width="141.97" height="1.39"/><rect class="cls-31" x="360.17" y="235.79" width="141.97" height="1.39"/><rect class="cls-1" x="511.61" y="206.89" width="78.59" height="42.25"/><line class="cls-34" x1="537.53" y1="231.76" x2="566.21" y2="231.76"/><rect class="cls-31" x="533.65" y="218.51" width="33.15" height="3.23"/><rect class="cls-31" x="537.53" y="236.9" width="44.4" height="1.39"/><rect class="cls-31" x="537.53" y="242.74" width="44.4" height="1.39"/><rect class="cls-23" x="548.37" y="190.89" width="40.57" height="9.38" rx="3.12" ry="3.12"/><path class="cls-3" d="M379.37,193.31l-3.09,3.09-1.2-1.2-.94.94,2.15,2.15,4-4Zm0,0"/><path class="cls-3" d="M416.2,193.31l-3.09,3.09-1.2-1.2-.94.94,2.15,2.15,4-4Zm0,0"/><rect class="cls-31" x="349.63" y="180.81" width="248.91" height="1.39"/><rect class="cls-16" x="360.17" y="214.66" width="49.88" height="1.39"/><path class="cls-16" d="M370.47,126.36a3.85,3.85,0,0,0-1.57.33,3.19,3.19,0,0,0-2.78-1.65,3.16,3.16,0,0,0-2.29,1,3.5,3.5,0,0,0-6,3.51,3,3,0,0,0,1.51,5.68,3,3,0,0,0,.62-.06,3.24,3.24,0,0,0,6,.15,2.84,2.84,0,0,0,3.72-1.17,3.86,3.86,0,0,0,.77.08,3.92,3.92,0,0,0,0-7.85Z"/><rect class="cls-35" x="518.99" y="215.66" width="8.4" height="8.4" rx="1.42" ry="1.42"/><rect class="cls-35" x="518.99" y="231.81" width="11.63" height="11.63" rx="1.42" ry="1.42"/><path class="cls-16" d="M380.42,134.23l.81-1a4.56,4.56,0,0,0,1.3.68,4.8,4.8,0,0,0,1.49.22,2.67,2.67,0,0,0,1.63-.45,1.54,1.54,0,0,0,.61-1.32,1.63,1.63,0,0,0-.29-1,2,2,0,0,0-.82-.62,9.5,9.5,0,0,0-1.42-.46,5.16,5.16,0,0,1-2.2-1.09,2.48,2.48,0,0,1-.75-1.91,2.58,2.58,0,0,1,.49-1.57,3,3,0,0,1,1.31-1,4.87,4.87,0,0,1,1.86-.34,5.51,5.51,0,0,1,3.33,1l-.73,1.08a5.53,5.53,0,0,0-1.25-.59,4.47,4.47,0,0,0-1.34-.19,2.59,2.59,0,0,0-1.47.37,1.4,1.4,0,0,0,0,2.22,5.77,5.77,0,0,0,1.77.69,5.84,5.84,0,0,1,2.4,1.15,2.74,2.74,0,0,1,.82,2.16,2.92,2.92,0,0,1-.52,1.77,3.18,3.18,0,0,1-1.42,1.08,5.26,5.26,0,0,1-2,.36,5.83,5.83,0,0,1-1.95-.32A5.25,5.25,0,0,1,380.42,134.23Z"/><path class="cls-16" d="M389.1,133.07a2.18,2.18,0,0,1,1.08-2.09,6.77,6.77,0,0,1,3.18-.59h.76V130q0-1.47-1.74-1.47a4.48,4.48,0,0,0-2.28.61l-.54-1a5.36,5.36,0,0,1,1.37-.58,5.66,5.66,0,0,1,1.52-.21,3.38,3.38,0,0,1,2.47.77,3.21,3.21,0,0,1,.77,2.36v3a15.72,15.72,0,0,0,.12,1.74h-1.45a5.74,5.74,0,0,1-.1-.91h0a2.86,2.86,0,0,1-1,.85,3.79,3.79,0,0,1-1.57.28,2.62,2.62,0,0,1-1.8-.61A2.2,2.2,0,0,1,389.1,133.07Zm5-.78v-.79h-.61a5,5,0,0,0-2.14.34,1.2,1.2,0,0,0-.64,1.16,1.14,1.14,0,0,0,.35.88,1.35,1.35,0,0,0,.94.31,2.2,2.2,0,0,0,1.12-.28,2,2,0,0,0,.73-.71A1.75,1.75,0,0,0,394.12,132.29Z"/><path class="cls-16" d="M398.08,124.59h1.57v10.61h-1.57Z"/><path class="cls-16" d="M408.73,131.93h-5.55a2.52,2.52,0,0,0,.69,1.64,2.24,2.24,0,0,0,1.65.59,3.63,3.63,0,0,0,1.19-.18,5.36,5.36,0,0,0,1.09-.54l.69,1a4.78,4.78,0,0,1-1.4.73,5.44,5.44,0,0,1-1.67.24,4,4,0,0,1-2.06-.51,3.31,3.31,0,0,1-1.31-1.43,4.81,4.81,0,0,1-.45-2.14,4.33,4.33,0,0,1,1-2.94,3.39,3.39,0,0,1,2.71-1.11,3.18,3.18,0,0,1,2.61,1.09,4.44,4.44,0,0,1,.9,2.91A4.2,4.2,0,0,1,408.73,131.93Zm-1.5-1.21a2.62,2.62,0,0,0-.53-1.61,1.75,1.75,0,0,0-1.45-.62,1.84,1.84,0,0,0-1.49.64,2.68,2.68,0,0,0-.59,1.6Z"/><path class="cls-16" d="M415.57,128.12l-.68,1a3.44,3.44,0,0,0-1.87-.58,1.88,1.88,0,0,0-1,.24.76.76,0,0,0-.37.68.93.93,0,0,0,.16.57,1.21,1.21,0,0,0,.52.36,8.35,8.35,0,0,0,1.1.33,3.71,3.71,0,0,1,1.72.84,1.94,1.94,0,0,1,.57,1.45,2.15,2.15,0,0,1-.42,1.33,2.54,2.54,0,0,1-1.12.83,4.14,4.14,0,0,1-1.53.28,4.28,4.28,0,0,1-2.8-.88l.72-1a3.76,3.76,0,0,0,1,.49,3.4,3.4,0,0,0,1.06.16,1.86,1.86,0,0,0,1.1-.28,1,1,0,0,0,.4-.84.93.93,0,0,0-.15-.56,1.19,1.19,0,0,0-.51-.35,8.1,8.1,0,0,0-1.09-.33,3.84,3.84,0,0,1-1.72-.82,2,2,0,0,1-.55-1.48,1.92,1.92,0,0,1,.8-1.61,3.43,3.43,0,0,1,2.12-.61A4.11,4.11,0,0,1,415.57,128.12Z"/><path class="cls-16" d="M421.93,124.61l-.36,1.12a3.49,3.49,0,0,0-.94-.1q-1.29,0-1.29,1.42v.45h1.89v1.2h-1.89v6.51h-1.57V128.7h-1.3v-1l1.3-.18V127a2.6,2.6,0,0,1,.67-1.91,2.82,2.82,0,0,1,2.05-.7A4.61,4.61,0,0,1,421.93,124.61Z"/><path class="cls-16" d="M430,131.33a4.64,4.64,0,0,1-.47,2.13,3.43,3.43,0,0,1-1.36,1.45,4.16,4.16,0,0,1-2.12.52,4,4,0,0,1-2.1-.52,3.51,3.51,0,0,1-1.36-1.45,5,5,0,0,1,0-4.24,3.34,3.34,0,0,1,1.35-1.41,4.22,4.22,0,0,1,2.11-.5,4.29,4.29,0,0,1,2.14.5,3.32,3.32,0,0,1,1.36,1.41A4.6,4.6,0,0,1,430,131.33Zm-6.25,0a3.43,3.43,0,0,0,.56,2.06,2,2,0,0,0,1.73.77,2.05,2.05,0,0,0,1.77-.77,3.39,3.39,0,0,0,.57-2.06,3.3,3.3,0,0,0-.57-2,2.07,2.07,0,0,0-1.77-.76,2,2,0,0,0-1.74.76A3.36,3.36,0,0,0,423.71,131.33Z"/><path class="cls-16" d="M431.88,129.24a14.84,14.84,0,0,0-.1-1.74h1.5a8.48,8.48,0,0,1,.12,1.06h0a2.36,2.36,0,0,1,.89-.94,2.87,2.87,0,0,1,1.46-.33l.45,0-.07,1.36a2.72,2.72,0,0,0-.52,0,2,2,0,0,0-1.6.69,2.68,2.68,0,0,0-.57,1.77v4.09h-1.57Z"/><path class="cls-16" d="M440.7,127.29a4.51,4.51,0,0,1,1.38.21,4,4,0,0,1,1.2.61l-.61,1.09a3.3,3.3,0,0,0-1.95-.61,2.07,2.07,0,0,0-1.73.73,3.17,3.17,0,0,0-.58,2,3.21,3.21,0,0,0,.58,2,2,2,0,0,0,1.7.76,3.73,3.73,0,0,0,2-.63l.57,1.11a4.49,4.49,0,0,1-2.68.84,3.68,3.68,0,0,1-2.2-.61,3.32,3.32,0,0,1-1.19-1.53,5.39,5.39,0,0,1-.35-1.94,4.64,4.64,0,0,1,.46-2.13,3.34,3.34,0,0,1,1.34-1.42A4.11,4.11,0,0,1,440.7,127.29Z"/><path class="cls-16" d="M451.33,131.93h-5.55a2.52,2.52,0,0,0,.69,1.64,2.24,2.24,0,0,0,1.65.59,3.63,3.63,0,0,0,1.19-.18,5.36,5.36,0,0,0,1.09-.54l.69,1a4.78,4.78,0,0,1-1.4.73,5.44,5.44,0,0,1-1.67.24,4,4,0,0,1-2.06-.51,3.31,3.31,0,0,1-1.31-1.43,4.81,4.81,0,0,1-.45-2.14,4.33,4.33,0,0,1,1-2.94,3.39,3.39,0,0,1,2.71-1.11,3.18,3.18,0,0,1,2.61,1.09,4.44,4.44,0,0,1,.9,2.91A4.2,4.2,0,0,1,451.33,131.93Zm-1.5-1.21a2.62,2.62,0,0,0-.53-1.61,1.75,1.75,0,0,0-1.45-.62,1.84,1.84,0,0,0-1.49.64,2.68,2.68,0,0,0-.59,1.6Z"/></g></svg>