<?xml version="1.0" encoding="utf-8"?>
<!-- Generator: Adobe Illustrator 24.0.2, SVG Export Plug-In . SVG Version: 6.00 Build 0)  -->
<svg version="1.1" id="Layer_1" xmlns="http://www.w3.org/2000/svg" xmlns:xlink="http://www.w3.org/1999/xlink" x="0px" y="0px"
	 viewBox="0 0 428.3 67.8" style="enable-background:new 0 0 428.3 67.8;" xml:space="preserve">
<style type="text/css">
	.st0{fill-rule:evenodd;clip-rule:evenodd;fill:url(#SVGID_1_);}
	.st1{fill-rule:evenodd;clip-rule:evenodd;fill:url(#SVGID_2_);}
	.st2{fill-rule:evenodd;clip-rule:evenodd;fill:#072A48;}
</style>
<g>
	<g>
		<linearGradient id="SVGID_1_" gradientUnits="userSpaceOnUse" x1="403.2265" y1="37.31" x2="364.4436" y2="59.5212">
			<stop  offset="0" style="stop-color:#009999"/>
			<stop  offset="0.7" style="stop-color:#33CCCC"/>
		</linearGradient>
		<polygon class="st0" points="408,45.6 388.7,34.6 369.2,45.7 369.2,45.8 369.2,67.8 		"/>
		<linearGradient id="SVGID_2_" gradientUnits="userSpaceOnUse" x1="423.3037" y1="42.7402" x2="364.1349" y2="8.8538">
			<stop  offset="0.35" style="stop-color:#33CCCC"/>
			<stop  offset="1" style="stop-color:#009999"/>
		</linearGradient>
		<polygon class="st1" points="369.2,0 428.3,33.9 407.9,45.7 369.2,23.5 369.2,0 		"/>
	</g>
	<g>
		<g>
			<defs>
				<path id="SVGID_3_" d="M36.4,52.4v10.4H0V4.5h36.4v10.4H13.2v13.6H31v10H13.2v13.9H36.4L36.4,52.4z M83.9,62.8
					c-1,0-1.9-0.2-2.5-0.5c-0.7-0.3-1.4-0.9-2-1.7L52.7,25.8c0.1,1,0.2,2,0.2,3c0,1,0.1,1.9,0.1,2.7v31.2H41.4V4.5h6.9
					c0.6,0,1,0,1.4,0.1c0.4,0.1,0.7,0.2,1,0.3c0.3,0.1,0.6,0.4,0.9,0.6c0.3,0.3,0.6,0.6,1,1.1l26.9,35c-0.1-1.1-0.2-2.2-0.3-3.3
					c-0.1-1.1-0.1-2-0.1-3V4.5h11.6v58.3H83.9L83.9,62.8z M123.3,15.2v47.6h-13.1V15.2H94.3V4.5h44.9v10.7H123.3L123.3,15.2z
					 M194.8,45.4c-1.4,3.6-3.4,6.8-6,9.5c-2.6,2.7-5.6,4.8-9.3,6.3c-3.6,1.5-7.6,2.3-12,2.3c-4.4,0-8.4-0.8-12-2.3
					c-3.6-1.5-6.7-3.6-9.3-6.3c-2.6-2.7-4.6-5.8-6-9.5c-1.4-3.6-2.1-7.5-2.1-11.8c0-4.2,0.7-8.1,2.1-11.8c1.4-3.6,3.4-6.8,6-9.4
					c2.6-2.7,5.7-4.8,9.3-6.3c3.6-1.5,7.6-2.3,12-2.3c4.4,0,8.4,0.8,12,2.3c3.6,1.5,6.7,3.6,9.3,6.3c2.6,2.7,4.5,5.8,6,9.4
					c1.4,3.6,2.1,7.5,2.1,11.7C196.9,37.9,196.2,41.8,194.8,45.4L194.8,45.4z M182.4,25.9c-0.7-2.3-1.8-4.3-3.1-5.9
					c-1.4-1.6-3-2.8-5-3.7c-2-0.9-4.2-1.3-6.7-1.3c-2.5,0-4.8,0.4-6.8,1.3c-2,0.9-3.6,2.1-5,3.7c-1.4,1.6-2.4,3.6-3.1,5.9
					c-0.7,2.3-1.1,4.9-1.1,7.8c0,2.9,0.4,5.5,1.1,7.8c0.7,2.3,1.8,4.3,3.1,5.9c1.4,1.6,3,2.8,5,3.7c2,0.8,4.2,1.3,6.8,1.3
					c2.5,0,4.7-0.4,6.7-1.3c2-0.8,3.6-2.1,5-3.7c1.4-1.6,2.4-3.6,3.1-5.9c0.7-2.3,1.1-4.9,1.1-7.8C183.5,30.8,183.1,28.2,182.4,25.9
					L182.4,25.9z M247.7,48.9c-1.1,3-2.7,5.6-4.8,7.7c-2.1,2.2-4.6,3.8-7.6,5c-3,1.2-6.4,1.8-10.1,1.8c-3.8,0-7.2-0.6-10.2-1.8
					c-3-1.2-5.5-2.9-7.6-5c-2.1-2.2-3.7-4.7-4.8-7.7c-1.1-3-1.7-6.3-1.7-9.8V4.5H214V39c0,2.1,0.3,3.9,0.8,5.5
					c0.5,1.6,1.2,3,2.2,4.1c1,1.1,2.1,2,3.5,2.6c1.4,0.6,3,0.9,4.7,0.9c1.8,0,3.3-0.3,4.7-0.9c1.4-0.6,2.6-1.5,3.5-2.6
					c1-1.1,1.7-2.5,2.2-4.1c0.5-1.6,0.8-3.4,0.8-5.5V4.5h13.1V39C249.4,42.6,248.9,45.9,247.7,48.9L247.7,48.9z M295.6,18.8
					c-0.4,0.3-0.9,0.5-1.6,0.5c-0.5,0-0.9-0.1-1.3-0.3c-0.4-0.2-0.9-0.5-1.3-0.8c-0.5-0.3-1-0.6-1.5-1c-0.6-0.4-1.2-0.7-2-1
					c-0.8-0.3-1.7-0.6-2.7-0.8c-1-0.2-2.2-0.3-3.6-0.3c-2.2,0-4.2,0.4-6,1.2c-1.8,0.8-3.4,2-4.7,3.6c-1.3,1.6-2.3,3.5-3,5.8
					c-0.7,2.3-1.1,4.9-1.1,7.9c0,3,0.4,5.6,1.2,8c0.8,2.3,1.9,4.3,3.2,5.9c1.4,1.6,2.9,2.8,4.8,3.6c1.8,0.8,3.8,1.2,5.8,1.2
					c1.2,0,2.3-0.1,3.3-0.2c1-0.1,1.9-0.3,2.8-0.6c0.9-0.3,1.7-0.7,2.4-1.1c0.7-0.5,1.5-1.1,2.3-1.8c0.3-0.3,0.6-0.5,1-0.7
					c0.4-0.2,0.7-0.3,1.1-0.3c0.3,0,0.6,0.1,0.9,0.2c0.3,0.1,0.6,0.3,0.9,0.6l5.2,5.6c-2.3,3.1-5.1,5.4-8.6,6.9
					c-3.4,1.6-7.5,2.3-12.2,2.3c-4.3,0-8.1-0.8-11.5-2.3c-3.4-1.5-6.3-3.6-8.7-6.2c-2.4-2.7-4.2-5.8-5.5-9.4
					c-1.3-3.6-1.9-7.6-1.9-11.9c0-4.3,0.7-8.3,2.1-12s3.3-6.8,5.8-9.4c2.5-2.6,5.5-4.7,8.9-6.2c3.5-1.5,7.3-2.2,11.4-2.2
					c2.1,0,4.1,0.2,6,0.6c1.9,0.4,3.6,0.9,5.3,1.6c1.6,0.7,3.1,1.5,4.5,2.5c1.4,1,2.6,2,3.6,3.1l-4.4,6.1
					C296.3,18.1,296,18.5,295.6,18.8L295.6,18.8z M340.5,62.8V38.2h-23v24.6h-13.2V4.5h13.2v24.4h23V4.5h13.2v58.3H340.5L340.5,62.8
					z"/>
			</defs>
			<use xlink:href="#SVGID_3_"  style="overflow:visible;fill:#072A48;"/>
			<clipPath id="SVGID_4_">
				<use xlink:href="#SVGID_3_"  style="overflow:visible;"/>
			</clipPath>
		</g>
		<path class="st2" d="M358.8,3.9v0.5H358v2.3h-0.5V4.4h-0.9V3.9H358.8L358.8,3.9z M361.8,6.7l-0.1-1.6c0-0.2,0-0.5,0-0.8h0
			c-0.1,0.2-0.2,0.6-0.2,0.8l-0.5,1.5h-0.6l-0.5-1.6c-0.1-0.2-0.1-0.5-0.2-0.8h0c0,0.3,0,0.5,0,0.8l-0.1,1.6H359l0.2-2.7h0.8
			l0.5,1.3c0.1,0.2,0.1,0.4,0.2,0.7h0c0.1-0.2,0.1-0.5,0.2-0.7l0.5-1.4h0.8l0.2,2.7H361.8L361.8,6.7z"/>
	</g>
</g>
</svg>
